<svg xmlns="http://www.w3.org/2000/svg" width="29" height="36"><g fill="none"><path fill="#0084FF" d="M15 1S10.844 7.106 1 7.106v11.265c.14 6.193.642 11.407 14 17.629 13.358-6.222 13.86-11.436 14-17.629V7.106C19.156 7.106 15 1 15 1z"/><ellipse cx="14.5" cy="18" fill="#074761" rx="8.5" ry="9"/><path fill="#FFF" d="M15.765 20.21c1.511-.503 2.597-1.88 2.597-3.503 0-2.047-1.73-3.707-3.862-3.707-2.133 0-3.862 1.66-3.862 3.707 0 1.622 1.085 3 2.597 3.503-2.486.28-4.68 1.372-6.235 2.96C8.625 25.48 11.378 27 14.5 27c3.123 0 5.875-1.52 7.5-3.83-1.555-1.588-3.749-2.68-6.235-2.96z"/><path fill="#000" d="M28.274 6.024c-4.785 0-8.11-1.55-10.056-2.849-2.114-1.411-3.11-2.844-3.12-2.857A.724.724 0 0014.501 0H14.5a.725.725 0 00-.596.316c-.01.015-1.007 1.448-3.121 2.86C8.835 4.475 5.51 6.024.726 6.024A.73.73 0 000 6.759v11.13c.073 3.24.284 6.157 2.125 9.065 2.048 3.236 5.884 6.088 12.07 8.978a.718.718 0 00.61 0c6.186-2.89 10.021-5.742 12.07-8.978 1.84-2.908 2.052-5.826 2.125-9.065V6.76a.73.73 0 00-.726-.735zm-.726 11.84c-.07 3.117-.256 5.708-1.896 8.298-1.86 2.937-5.407 5.576-11.152 8.293C8.755 31.74 5.207 29.1 3.348 26.162c-1.64-2.59-1.825-5.18-1.896-8.298V7.482c4.797-.15 8.175-1.762 10.195-3.124A15.21 15.21 0 0014.5 1.894a15.21 15.21 0 002.853 2.464c2.02 1.362 5.398 2.974 10.195 3.124v10.382z"/><path fill="#000" d="M10.92 7.439c-.179-.4-.604-.555-.948-.347C8.069 8.24 5.928 9.008 3.608 9.378c-.385.061-.654.472-.601.918.048.408.35.704.695.704a.617.617 0 00.097-.008c2.48-.395 4.776-1.22 6.822-2.454.345-.208.479-.7.3-1.1zM12.842 7a.813.813 0 00.485-.161c.114-.084.224-.167.33-.25a.907.907 0 00.179-1.23.818.818 0 00-1.177-.187 23.85 23.85 0 01-.303.228c-.38.28-.47.83-.202 1.227a.83.83 0 00.688.373zM5 18.5c0 5.238 4.262 9.5 9.5 9.5s9.5-4.262 9.5-9.5S19.738 9 14.5 9 5 13.262 5 18.5zm9.5 8.038a8.028 8.028 0 01-6.31-3.064c1.39-1.284 3.203-2.108 5.168-2.338a.73.73 0 00.154-1.416 3.016 3.016 0 01-2.026-2.848 3.018 3.018 0 013.014-3.014 3.018 3.018 0 013.014 3.014 3.016 3.016 0 01-2.026 2.848.73.73 0 00.154 1.416c1.965.23 3.778 1.054 5.168 2.338a8.028 8.028 0 01-6.31 3.064zm8.038-8.038a7.988 7.988 0 01-.922 3.735 10.522 10.522 0 00-3.973-2.177 4.477 4.477 0 001.333-3.186 4.48 4.48 0 00-4.476-4.476 4.48 4.48 0 00-4.476 4.476c0 1.224.5 2.363 1.333 3.186a10.521 10.521 0 00-3.973 2.177 7.988 7.988 0 01-.922-3.735c0-4.432 3.606-8.038 8.038-8.038s8.038 3.606 8.038 8.038z"/></g></svg>