<svg width="158" height="140" fill="none" xmlns="http://www.w3.org/2000/svg"><rect width="157.5" height="140" rx="8" fill="#EFF2F2"/><path d="M45.388 90.518c1.214 0 2.222.308 3.024.924.803.616 1.344 1.451 1.624 2.506h-1.694a2.955 2.955 0 00-1.12-1.414c-.504-.355-1.124-.532-1.862-.532a2.94 2.94 0 00-1.582.434c-.457.29-.821.705-1.092 1.246-.261.532-.392 1.157-.392 1.876 0 .71.131 1.335.392 1.876.271.532.635.943 1.092 1.232.467.29.994.434 1.582.434.738 0 1.358-.173 1.862-.518a3.045 3.045 0 001.12-1.414h1.694c-.28 1.055-.821 1.89-1.624 2.506-.802.607-1.81.91-3.024.91-.933 0-1.759-.21-2.478-.63a4.372 4.372 0 01-1.666-1.778c-.392-.765-.588-1.638-.588-2.618s.196-1.848.588-2.604a4.351 4.351 0 011.666-1.792c.719-.43 1.545-.644 2.478-.644zm10.169 2.17c.746 0 1.418.159 2.016.476a3.417 3.417 0 011.4 1.372c.336.597.504 1.297.504 2.1 0 .812-.168 1.517-.504 2.114a3.417 3.417 0 01-1.4 1.372c-.598.317-1.27.476-2.016.476-.747 0-1.419-.159-2.016-.476a3.532 3.532 0 01-1.4-1.372c-.336-.607-.504-1.311-.504-2.114 0-.803.168-1.503.504-2.1a3.532 3.532 0 011.4-1.372c.597-.317 1.269-.476 2.016-.476zm0 1.386c-.411 0-.789.093-1.134.28-.346.187-.626.476-.84.868-.206.383-.308.854-.308 1.414 0 .57.102 1.045.308 1.428.214.383.494.667.84.854.345.187.723.28 1.134.28.41 0 .788-.093 1.134-.28a2.03 2.03 0 00.826-.854c.214-.383.322-.859.322-1.428 0-.56-.108-1.031-.322-1.414-.206-.392-.481-.681-.826-.868a2.346 2.346 0 00-1.134-.28zm7.45.224c.262-.504.635-.9 1.12-1.19.486-.299 1.046-.448 1.68-.448v1.736h-.476c-.7 0-1.264.173-1.694.518-.42.336-.63.896-.63 1.68v3.906h-1.596v-7.714h1.596v1.512zm8.82-1.61c.672 0 1.27.159 1.792.476.532.317.947.775 1.246 1.372.299.597.448 1.297.448 2.1 0 .812-.15 1.517-.448 2.114-.299.597-.714 1.055-1.246 1.372-.523.317-1.12.476-1.792.476-.7 0-1.297-.173-1.792-.518a2.709 2.709 0 01-1.036-1.372v5.46h-1.596V92.786h1.596v1.792a2.709 2.709 0 011.036-1.372c.495-.345 1.092-.518 1.792-.518zm-.49 1.4c-.448 0-.85.107-1.204.322a2.168 2.168 0 00-.84.896c-.205.383-.308.826-.308 1.33 0 .513.103.961.308 1.344.205.383.485.681.84.896a2.36 2.36 0 001.204.308c.71 0 1.279-.224 1.708-.672.43-.457.644-1.083.644-1.876 0-.784-.215-1.405-.644-1.862-.43-.457-.999-.686-1.708-.686zm9.441-1.4c.747 0 1.419.159 2.016.476a3.417 3.417 0 011.4 1.372c.336.597.504 1.297.504 2.1 0 .812-.168 1.517-.504 2.114a3.417 3.417 0 01-1.4 1.372c-.597.317-1.27.476-2.016.476-.747 0-1.419-.159-2.016-.476a3.532 3.532 0 01-1.4-1.372c-.336-.607-.504-1.311-.504-2.114 0-.803.168-1.503.504-2.1a3.532 3.532 0 011.4-1.372c.597-.317 1.27-.476 2.016-.476zm0 1.386c-.41 0-.788.093-1.134.28-.345.187-.625.476-.84.868-.205.383-.308.854-.308 1.414 0 .57.103 1.045.308 1.428.215.383.495.667.84.854.346.187.724.28 1.134.28.41 0 .789-.093 1.134-.28a2.03 2.03 0 00.826-.854c.215-.383.322-.859.322-1.428 0-.56-.107-1.031-.322-1.414-.205-.392-.48-.681-.826-.868a2.346 2.346 0 00-1.134-.28zm7.45.224c.262-.504.635-.9 1.12-1.19.486-.299 1.046-.448 1.68-.448v1.736h-.475c-.7 0-1.265.173-1.694.518-.42.336-.63.896-.63 1.68v3.906h-1.596v-7.714h1.596v1.512zm7.49-1.61c.7 0 1.298.173 1.792.518.495.345.845.803 1.05 1.372v-1.792h1.596v7.714H98.56v-1.792a2.787 2.787 0 01-1.05 1.372c-.494.345-1.092.518-1.792.518a3.46 3.46 0 01-1.806-.476c-.522-.317-.933-.775-1.232-1.372-.298-.597-.448-1.302-.448-2.114 0-.803.15-1.503.448-2.1.3-.597.71-1.055 1.232-1.372.532-.317 1.134-.476 1.806-.476zm.49 1.4c-.709 0-1.278.229-1.708.686-.42.448-.63 1.069-.63 1.862 0 .793.21 1.419.63 1.876.43.448 1 .672 1.708.672.448 0 .85-.103 1.204-.308.355-.215.635-.513.84-.896.206-.383.308-.83.308-1.344 0-.504-.102-.947-.308-1.33a2.168 2.168 0 00-.84-.896 2.279 2.279 0 00-1.204-.322zm10.142 5.026v1.386h-.98c-.822 0-1.447-.196-1.876-.588-.42-.401-.63-1.064-.63-1.988v-3.78h-1.106v-1.358h1.106v-1.918h1.61v1.918h1.862v1.358h-1.862v3.808c0 .439.079.742.238.91.168.168.457.252.868.252h.77zm9.063-2.842c0 .261-.019.49-.056.686h-5.936c.028.793.247 1.381.658 1.764.41.383.919.574 1.526.574.532 0 .98-.135 1.344-.406.373-.27.602-.63.686-1.078h1.708a3.332 3.332 0 01-.644 1.442c-.327.42-.752.751-1.274.994a4.253 4.253 0 01-1.75.35c-.747 0-1.41-.159-1.988-.476a3.39 3.39 0 01-1.344-1.372c-.327-.597-.49-1.302-.49-2.114 0-.803.163-1.503.49-2.1a3.39 3.39 0 011.344-1.372c.578-.317 1.241-.476 1.988-.476.756 0 1.414.159 1.974.476a3.153 3.153 0 011.302 1.288c.308.541.462 1.148.462 1.82zm-1.61-.042c.018-.504-.07-.924-.266-1.26a1.707 1.707 0 00-.784-.756 2.323 2.323 0 00-1.078-.252c-.626 0-1.148.191-1.568.574-.42.383-.649.947-.686 1.694h4.382zM93.658 40.959h-9.901V37.718c0-.949-.77-1.718-1.718-1.718h-7.71c-.95 0-1.718.77-1.718 1.718v3.249h-9.893c-.949 0-1.718.769-1.718 1.718v22.097c0 .949.77 1.718 1.718 1.718h30.94c.948 0 1.718-.77 1.718-1.718V42.677c0-.95-.77-1.718-1.718-1.718zm-19.42-.098l.017-3.16c0-.049.04-.089.09-.089h7.727c.049 0 .09.04.09.09v3.159c0 .05-.041.09-.09.09h-7.743a.09.09 0 01-.09-.09zm-11.52 1.726h30.94c-.766 1.45-4.747 8.305-12.156 9.95v-.945c0-.936-.75-1.7-1.686-1.718H76.56c-.948 0-1.718.77-1.718 1.718v.96c-7.4-1.628-11.398-8.508-12.156-9.949l.033-.016zm17.163 9.005v4.739c0 .05-.04.09-.09.09H76.56a.09.09 0 01-.09-.09v-4.739c0-.05.04-.09.09-.09h3.257a.09.09 0 01.065.09zM93.723 64.79c0 .05-.04.09-.09.09H62.718a.09.09 0 01-.09-.09V45.632c2.003 2.907 5.993 7.328 12.213 8.582v2.108c0 .95.77 1.718 1.718 1.718h3.257c.95 0 1.718-.769 1.718-1.718v-2.108c6.22-1.238 10.21-5.7 12.213-8.582l-.024 19.158z" fill="#424242"/></svg>