<svg xmlns="http://www.w3.org/2000/svg" width="46" height="52"><g fill="none" fill-rule="evenodd"><path fill="#F76045" d="M11 25l-1.447-.62c-.34-.145-.553-.442-.553-.767v-3.226c0-.325.214-.622.553-.767L11 19v6"/><g stroke="#014463"><path fill="#FBDEB9" d="M30.552 36.073v-6.059H15.354v6.06l7.599 6.924 7.599-6.925"/><path fill="#B5DDEB" d="M42.302 38.907l-10.448-2.52a1.657 1.657 0 01-.44-.18l-8.461 5.06-8.133-5.306a1.67 1.67 0 01-.768.426l-10.448 2.52C2.078 39.275 1 40.671 1 42.277v6.78c0 .956.756 1.73 1.689 1.73h40.528c.932 0 1.688-.774 1.688-1.73v-6.78c0-1.606-1.078-3.002-2.603-3.37"/></g><path fill="#F3D0A4" d="M15 30v6.192c9.448 3.425 15-5.146 15-5.146V30H15"/><path fill="#FBDEB9" stroke="#014463" d="M12 10l.737 16.433a5.162 5.162 0 002.026 3.88l3.498 2.658A5.035 5.035 0 0021.308 34h3.384c1.099 0 2.168-.36 3.046-1.029l3.5-2.658a5.162 5.162 0 002.025-3.88L34 10H12"/><path fill="#F3D0A4" d="M30 10H12l.732 16.066a5.024 5.024 0 002.012 3.794l3.474 2.599c.872.652 1.933.532 3.024.532h1.68c-1.68 0-5.04-2.879-5.04-7.069V15.866c0-.838.84-2.514 2.52-2.514 3.361 0 8.402-.838 9.598-3.352z"/><path fill="#014463" d="M25 50h-4l.5-8h3l.5 8"/><path fill="#377592" d="M25 41h-4v1.882c0 .618.4 1.118.894 1.118h2.212c.494 0 .894-.5.894-1.118V41"/><path fill="#014463" d="M15.383 34.223L23 41.36s-2.133 1.121-4.766 3.382a1.048 1.048 0 01-1.655-.39L13 36.155l1.132-1.768a.813.813 0 011.25-.164m15.235 0L23 41.36s2.133 1.121 4.766 3.382a1.048 1.048 0 001.655-.39L33 36.155l-1.132-1.768a.813.813 0 00-1.25-.164"/><path fill="#A18784" stroke="#014463" d="M30.992 4.183c5.537.82 4.993 10.984 4.993 10.984C33.83 17.511 34.3 21 34.3 21l-1.376-2.11a1.63 1.63 0 01-.266-.815c-.066-1.417-.483-5.98-3.093-7.491-1.375.782-3.448 1.25-6.426 1.25-2.633 0-5.214-.885-8.163.834-3.178 1.852-2.528 6.665-2.528 6.665L10.763 21s0-4.166-1.685-5.833c0 0-1.053-7.056 4.582-11.17l-1.247-.842c2.563-1.32 7.512-2.108 10.147-2.152 4.582-.077 7.21 1.6 8.432 3.18z"/><path fill="#674E4B" d="M11.892 11.107S11.006 7.62 13.612 4C8.035 8.113 9.077 15.168 9.077 15.168 10.745 16.835 10.745 21 10.745 21l1.668-1.666s-.644-4.813 2.501-6.665c2.92-1.718 5.473-.833 8.079-.833A20.52 20.52 0 0026 11.63c-5.379.18-8.549-3.89-14.108-.523" opacity=".385"/><path fill="#F1A79A" d="M12.5 26H11c-.552 0-1-.398-1-.889V18.89c0-.491.448-.889 1-.889h1.5c.276 0 .5.199.5.444v7.112c0 .245-.224.444-.5.444"/><path fill="#F76045" d="M26 31v-1.333c5.553 0 6.77-3.369 6.77-4.667H34c0 1.669-1.437 6-8 6"/><path fill="#F76045" d="M27 31h-1a1 1 0 010-2h1a1 1 0 010 2m8-6l1.447-.62c.339-.145.553-.442.553-.767v-3.226c0-.325-.214-.622-.553-.767L35 19v6"/><path fill="#F1A79A" d="M33.5 26H35c.552 0 1-.398 1-.889V18.89c0-.491-.448-.889-1-.889h-1.5c-.276 0-.5.199-.5.444v7.112c0 .245.224.444.5.444"/><path fill="#9FCCE2" d="M34.111 48H27.89c-.49 0-.889.448-.889 1v1h8v-1c0-.552-.398-1-.889-1"/></g></svg>