<svg xmlns="http://www.w3.org/2000/svg" width="148" height="138"><g fill="none" fill-rule="evenodd"><path fill="#BFC4CA" d="M139.044 116.428c0 2.414-1.903 4.312-4.327 4.312H47.598c-7.183 0-12.981-5.778-12.981-12.937 0-7.158 5.798-12.936 12.981-12.936 1.299 0 2.424.518 3.202 1.38l-3.202 7.244c-2.423 0-4.327 1.897-4.327 4.313 0 2.415 1.904 4.312 4.327 4.312h87.12c2.423 0 4.326 1.896 4.326 4.312"/><path fill="#A8ADB4" d="M39.29 29.408c.26 1.294-.086 2.415-.779 3.278l-8.654-6.813-2.51-13.713c-.433-2.07-2.163-3.536-4.24-3.536H4.326C1.904 8.624 0 6.727 0 4.312S1.904 0 4.327 0h18.78c6.23 0 11.596 4.485 12.721 10.608l3.462 18.8z"/><path fill="#A8ADB4" d="M146.66 27.339a4.477 4.477 0 00-3.289-1.466H29.857l13.5 74.082c.346 2.07 2.164 3.536 4.241 3.536h79.504c6.577 0 12.116-4.916 12.894-11.384l7.703-61.405c.086-1.207-.26-2.415-1.039-3.363"/><path fill="#BFC4CA" d="M139.044 116.428c0 2.414-1.903 4.312-4.327 4.312h-43.56v-8.624h43.56c2.424 0 4.327 1.896 4.327 4.312"/><path fill="#354B5E" d="M56.252 137.988c-7.158 0-12.98-5.803-12.98-12.936 0-7.134 5.822-12.937 12.98-12.937 7.159 0 12.982 5.803 12.982 12.937 0 7.133-5.823 12.936-12.982 12.936"/><path fill="#FFF" d="M56.252 120.74c-2.387 0-4.327 1.932-4.327 4.312 0 2.378 1.94 4.312 4.327 4.312 2.388 0 4.328-1.933 4.328-4.312 0-2.38-1.94-4.313-4.328-4.313"/><path fill="#354B5E" d="M126.063 137.988c-7.158 0-12.981-5.803-12.981-12.936 0-7.134 5.823-12.937 12.981-12.937 7.158 0 12.981 5.803 12.981 12.937 0 7.133-5.823 12.936-12.98 12.936"/><path fill="#FFF" d="M126.063 120.74c-2.387 0-4.327 1.932-4.327 4.312 0 2.378 1.94 4.312 4.327 4.312 2.388 0 4.327-1.933 4.327-4.312 0-2.38-1.94-4.313-4.327-4.313"/><path fill="#BFC4CA" d="M147.699 30.702l-7.703 61.405c-.778 6.468-6.317 11.384-12.895 11.384H91.158V25.872h52.213a4.48 4.48 0 013.289 1.466c.779.95 1.125 2.157 1.039 3.364"/><path fill="#FFF" d="M64.907 86.243a4.317 4.317 0 01-4.328-4.313V47.434a4.317 4.317 0 014.328-4.313 4.317 4.317 0 014.327 4.313V81.93a4.317 4.317 0 01-4.327 4.313m30.578-38.81V81.93c0 2.416-1.904 4.312-4.327 4.312-2.424 0-4.328-1.896-4.328-4.312V47.433c0-2.415 1.904-4.312 4.328-4.312 2.423 0 4.327 1.897 4.327 4.312m21.924 38.81a4.317 4.317 0 01-4.328-4.313V47.434a4.317 4.317 0 014.328-4.313 4.317 4.317 0 014.327 4.313V81.93a4.317 4.317 0 01-4.327 4.313"/></g></svg>