<svg width="158" height="140" fill="none" xmlns="http://www.w3.org/2000/svg"><rect width="157.5" height="140" rx="8" fill="#EFF2F2"/><path d="M44.836 91.616v9.884H43.24v-9.884h1.596zm6.644 2.044c.896 0 1.614.29 2.156.868.54.579.812 1.405.812 2.478v4.494h-1.596v-4.326c0-.69-.178-1.223-.532-1.596-.355-.383-.84-.574-1.456-.574-.635 0-1.144.205-1.526.616-.383.401-.574.994-.574 1.778v4.102h-1.596v-7.714h1.596v1.694a2.587 2.587 0 011.036-1.344c.485-.317 1.045-.476 1.68-.476zm8.328.028c.7 0 1.297.173 1.792.518.495.345.84.803 1.036 1.372V91.14h1.61v10.36h-1.61v-1.792a2.709 2.709 0 01-1.036 1.372c-.495.345-1.092.518-1.792.518a3.46 3.46 0 01-1.806-.476c-.523-.317-.933-.775-1.232-1.372-.299-.597-.448-1.302-.448-2.114 0-.803.15-1.503.448-2.1.299-.597.71-1.055 1.232-1.372.532-.317 1.134-.476 1.806-.476zm.49 1.4c-.71 0-1.279.229-1.708.686-.42.448-.63 1.069-.63 1.862 0 .793.21 1.419.63 1.876.43.448.999.672 1.708.672.448 0 .85-.103 1.204-.308.355-.215.635-.513.84-.896.205-.383.308-.83.308-1.344 0-.504-.103-.947-.308-1.33a2.168 2.168 0 00-.84-.896 2.279 2.279 0 00-1.204-.322zm6.04-3.542c0-.27.093-.495.28-.672.186-.177.433-.266.741-.266s.556.089.742.266a.867.867 0 01.294.672c0 .27-.098.49-.294.658-.186.168-.434.252-.742.252s-.555-.084-.742-.252a.843.843 0 01-.28-.658zm1.82 2.24v7.714H66.56v-7.714h1.596zm5.495 6.062l2.184-6.062h1.708l-2.94 7.714h-1.932l-2.94-7.714h1.708l2.212 6.062zm5.242-8.302c0-.27.094-.495.28-.672.187-.177.434-.266.742-.266s.555.089.742.266a.867.867 0 01.294.672c0 .27-.098.49-.294.658-.187.168-.434.252-.742.252s-.555-.084-.742-.252a.844.844 0 01-.28-.658zm1.82 2.24v7.714H79.12v-7.714h1.596zm5.425-.098c.7 0 1.298.173 1.793.518.494.345.84.803 1.035 1.372V91.14h1.61v10.36h-1.61v-1.792a2.71 2.71 0 01-1.035 1.372c-.495.345-1.093.518-1.793.518a3.46 3.46 0 01-1.805-.476c-.523-.317-.934-.775-1.232-1.372-.3-.597-.448-1.302-.448-2.114 0-.803.149-1.503.448-2.1.298-.597.709-1.055 1.232-1.372.532-.317 1.134-.476 1.806-.476zm.49 1.4c-.709 0-1.278.229-1.707.686-.42.448-.63 1.069-.63 1.862 0 .793.21 1.419.63 1.876.429.448.998.672 1.707.672.449 0 .85-.103 1.205-.308.354-.215.634-.513.84-.896.205-.383.308-.83.308-1.344 0-.504-.103-.947-.309-1.33a2.17 2.17 0 00-.84-.896 2.279 2.279 0 00-1.204-.322zm13.376-1.302v7.714h-1.61v-1.68a2.52 2.52 0 01-1.022 1.33c-.486.308-1.05.462-1.694.462-.896 0-1.615-.289-2.156-.868-.542-.579-.812-1.405-.812-2.478v-4.48h1.596v4.312c0 .7.177 1.241.532 1.624.354.373.84.56 1.456.56.634 0 1.143-.205 1.526-.616.382-.41.574-1.008.574-1.792v-4.088h1.61zm5.405-.098c.7 0 1.298.173 1.792.518.495.345.845.803 1.05 1.372v-1.792h1.596v7.714h-1.596v-1.792a2.784 2.784 0 01-1.05 1.372c-.494.345-1.092.518-1.792.518a3.46 3.46 0 01-1.806-.476c-.522-.317-.933-.775-1.232-1.372-.298-.597-.448-1.302-.448-2.114 0-.803.15-1.503.448-2.1.299-.597.71-1.055 1.232-1.372.532-.317 1.134-.476 1.806-.476zm.49 1.4c-.709 0-1.278.229-1.708.686-.42.448-.63 1.069-.63 1.862 0 .793.21 1.419.63 1.876.43.448.999.672 1.708.672.448 0 .85-.103 1.204-.308.355-.215.635-.513.84-.896.206-.383.308-.83.308-1.344 0-.504-.102-.947-.308-1.33a2.164 2.164 0 00-.84-.896 2.277 2.277 0 00-1.204-.322zm7.859-3.948v10.36h-1.596V91.14h1.596zM78.704 52.512h.216c1.972-.034 3.567-.727 4.744-2.053 2.591-2.92 2.16-7.928 2.114-8.406-.169-3.587-1.865-5.303-3.265-6.104-1.043-.599-2.26-.922-3.62-.949H78.779c-.748 0-2.215.121-3.622.922-1.413.8-3.136 2.517-3.304 6.131-.047.478-.478 5.485 2.113 8.406 1.171 1.326 2.766 2.02 4.738 2.053zm-5.054-10.29c0-.02.007-.04.007-.054.222-4.826 3.647-5.344 5.115-5.344h.08c1.817.04 4.907.78 5.115 5.344 0 .02 0 .04.007.053.007.048.478 4.624-1.662 7.034-.848.955-1.98 1.426-3.466 1.44h-.068c-1.48-.014-2.618-.485-3.459-1.44-2.133-2.396-1.676-6.993-1.67-7.034z" fill="#424242"/><path d="M92.643 60.817v-.02c0-.054-.007-.108-.007-.168-.04-1.333-.128-4.45-3.049-5.445l-.067-.02c-3.035-.774-5.56-2.524-5.586-2.544a.908.908 0 10-1.043 1.487c.114.08 2.793 1.945 6.144 2.806 1.568.56 1.743 2.235 1.79 3.77 0 .06 0 .114.007.168.007.605-.033 1.54-.141 2.08-1.09.618-5.364 2.759-11.865 2.759-6.475 0-10.775-2.147-11.872-2.767-.108-.538-.155-1.473-.142-2.08 0-.053.007-.107.007-.167.047-1.535.222-3.21 1.79-3.77 3.352-.86 6.03-2.732 6.145-2.806a.908.908 0 10-1.043-1.487c-.027.02-2.538 1.77-5.586 2.544l-.068.02c-2.92 1.003-3.008 4.119-3.048 5.445 0 .06 0 .114-.007.168v.02c-.007.35-.014 2.147.343 3.049a.863.863 0 00.35.424c.202.135 5.04 3.217 13.137 3.217 8.097 0 12.936-3.09 13.138-3.217a.9.9 0 00.35-.424c.336-.895.33-2.692.323-3.042z" fill="#424242"/></svg>