<svg xmlns="http://www.w3.org/2000/svg" width="31" height="31"><defs><linearGradient id="a" x1="-.853%" x2="100.854%" y1="26.287%" y2="73.721%"><stop offset="0%" stop-color="#FFF" stop-opacity=".2"/><stop offset="100%" stop-color="#FFF" stop-opacity="0"/></linearGradient></defs><g fill="none"><path fill="#303C42" d="M29.708 9.324V5.813a4.526 4.526 0 00-4.52-4.521h-3.512a15.4 15.4 0 00-12.352 0H5.813a4.526 4.526 0 00-4.521 4.52v3.512a15.4 15.4 0 000 12.352v3.512a4.526 4.526 0 004.52 4.52h3.512a15.4 15.4 0 0012.352 0h3.512a4.526 4.526 0 004.52-4.52v-3.512a15.4 15.4 0 000-12.352zM5.813 28.417a3.233 3.233 0 01-3.23-3.23V24.05a15.616 15.616 0 004.368 4.368H5.813zM2.583 6.95V5.813c0-1.78 1.448-3.23 3.23-3.23H6.95a15.615 15.615 0 00-4.368 4.368zM15.5 23.25c-4.274 0-7.75-3.476-7.75-7.75s3.476-7.75 7.75-7.75 7.75 3.476 7.75 7.75-3.476 7.75-7.75 7.75zm12.917 1.938a3.233 3.233 0 01-3.23 3.229H24.05a15.616 15.616 0 004.368-4.368v1.139zm0-18.237a15.616 15.616 0 00-4.368-4.368h1.139a3.233 3.233 0 013.229 3.23V6.95z"/><path fill="#FFF" d="M1 15.5c0-.853.077-1.685.196-2.5L6 13.913a11.02 11.02 0 00-.124 1.587c0 .541.049 1.07.124 1.587L1.196 18A17.317 17.317 0 011 15.5z"/><path d="M7.12 12.812l-5.107-.837c1.293-4.863 5.182-8.69 10.123-9.962l.852 5.024c-2.782.872-4.983 3.037-5.869 5.775zm0 5.376c.885 2.738 3.086 4.903 5.868 5.775l-.852 5.024c-4.941-1.273-8.83-5.1-10.123-9.961l5.106-.838z" fill="#E53935"/><path fill="#FFF" d="M29 15.5c0 .853-.077 1.684-.196 2.5L24 17.087a11.02 11.02 0 00.124-1.587c0-.542-.049-1.07-.124-1.587L28.804 13c.119.815.196 1.647.196 2.5z"/><path d="M23.88 12.812c-.885-2.738-3.086-4.903-5.868-5.775l.852-5.024c4.941 1.273 8.83 5.1 10.123 9.962l-5.106.837zm0 5.376l5.107.838c-1.293 4.862-5.182 8.688-10.123 9.961l-.852-5.024c2.782-.872 4.983-3.037 5.869-5.775z" fill="#E53935"/><path d="M17.962 1.224l-.9 5.009c-.51-.078-1.029-.13-1.562-.13-.533 0-1.053.052-1.563.13l-.899-5.01A16.126 16.126 0 0115.5 1.02c.84 0 1.659.08 2.462.204zm-4.924 27.552l.9-5.009c.51.078 1.029.13 1.562.13.533 0 1.053-.051 1.563-.13l.899 5.01c-.803.123-1.622.203-2.462.203-.84 0-1.659-.08-2.462-.204z" fill="#FFF"/><path fill="url(#a)" d="M29.708 9.324V5.813a4.526 4.526 0 00-4.52-4.521h-3.512a15.4 15.4 0 00-12.352 0H5.813a4.526 4.526 0 00-4.521 4.52v3.512a15.4 15.4 0 000 12.352v3.512a4.526 4.526 0 004.52 4.52h3.512a15.4 15.4 0 0012.352 0h3.512a4.526 4.526 0 004.52-4.52v-3.512a15.4 15.4 0 000-12.352zM5.813 28.417a3.233 3.233 0 01-3.23-3.23V24.05a15.616 15.616 0 004.368 4.368H5.813zM2.583 6.95V5.813c0-1.78 1.448-3.23 3.23-3.23H6.95a15.615 15.615 0 00-4.368 4.368zM15.5 23.25c-4.274 0-7.75-3.476-7.75-7.75s3.476-7.75 7.75-7.75 7.75 3.476 7.75 7.75-3.476 7.75-7.75 7.75zm12.917 1.938a3.233 3.233 0 01-3.23 3.229H24.05a15.616 15.616 0 004.368-4.368v1.139zm0-18.237a15.616 15.616 0 00-4.368-4.368h1.139a3.233 3.233 0 013.229 3.23V6.95z"/><path fill="#000" d="M2 20c1.438 4.394 4.98 7.82 9.448 9L12 25.66C7.883 25.347 4.284 23.19 2 20zm27.802-2c.12-.816.198-1.647.198-2.5s-.078-1.685-.198-2.5l-1.782.335A16.673 16.673 0 0127 17.474l2.802.526zm-2.227-6L29 11.737A15.737 15.737 0 0027 7c.39 1.402.601 2.89.601 4.434 0 .191-.02.377-.026.566zM18 25.622L18.72 30c5.017-1.334 8.967-5.344 10.28-10.44L25.69 19A14.495 14.495 0 0118 25.622zm-5 3.188c.815.115 1.647.19 2.5.19s1.685-.075 2.5-.19L17.258 25a17.665 17.665 0 01-3.598.423L13 28.809z" opacity=".1"/></g></svg>