<svg xmlns="http://www.w3.org/2000/svg" width="25" height="34"><defs><linearGradient id="a" x1=".451%" x2="110.369%" y1="38.4%" y2="76.841%"><stop offset="0%" stop-color="#FFF" stop-opacity=".2"/><stop offset="100%" stop-color="#FFF" stop-opacity="0"/></linearGradient></defs><g fill="none"><path fill="#303C42" d="M24.306 12.75h-2.084V9.917C22.222 4.449 17.861 0 12.5 0 7.14 0 2.778 4.449 2.778 9.917v.708a.7.7 0 00.694.708H6.25a.701.701 0 00.694-.708v-.708c0-3.125 2.493-5.667 5.556-5.667s5.556 2.542 5.556 5.667v2.833H.694a.701.701 0 00-.694.708v17.709C0 32.729 1.246 34 2.778 34h19.444C23.754 34 25 32.73 25 31.167V13.458a.701.701 0 00-.694-.708z"/><path fill="#F2F2F2" d="M12.5 2.833c-3.829 0-6.944 3.178-6.944 7.084h-1.39c0-4.687 3.739-8.5 8.334-8.5s8.333 3.813 8.333 8.5v2.833h-1.389V9.917c0-3.906-3.115-7.084-6.944-7.084z"/><path fill="#FFCA28" d="M23.611 31.167c0 .78-.623 1.416-1.389 1.416H2.778c-.766 0-1.39-.635-1.39-1.416v-17h22.223v17z"/><path fill="#FFF" d="M4.167 31.167v-17H1.389v17c0 .78.623 1.416 1.389 1.416h2.43c-.574 0-1.041-.635-1.041-1.416z" opacity=".2"/><path fill="#000" d="M20.833 14.167v17c0 .78-.467 1.416-1.041 1.416h2.43c.766 0 1.39-.635 1.39-1.416v-17h-2.779z" opacity=".1"/><path fill="#303C42" d="M10.859 23.529l-.438 4.018c-.022.2.041.4.173.55.131.15.32.236.517.236h2.778a.689.689 0 00.517-.236.719.719 0 00.173-.55l-.438-4.018a2.82 2.82 0 001.137-2.279c0-1.563-1.246-2.833-2.778-2.833s-2.778 1.27-2.778 2.833c0 .916.425 1.75 1.137 2.279z"/><path fill="#5C6671" d="M12.5 19.833c.766 0 1.389.636 1.389 1.417 0 .543-.303 1.03-.79 1.27a.712.712 0 00-.387.716l.401 3.68h-1.226l.401-3.68a.712.712 0 00-.387-.716 1.408 1.408 0 01-.79-1.27c0-.78.623-1.417 1.389-1.417z"/><path fill="#000" d="M11.96 22.578a1.402 1.402 0 01-.154-.62c0-.78.623-1.416 1.388-1.416.204 0 .393.05.567.13a1.386 1.386 0 00-1.261-.839c-.766 0-1.389.636-1.389 1.417 0 .543.303 1.03.79 1.27.026.013.036.042.06.058zm.926 2.256l-.162-1.48c-.045-.04-.073-.098-.129-.126a1.418 1.418 0 01-.359-.26c.025.089.063.173.052.268l-.401 3.68h.772l.227-2.082z" opacity=".1"/><path fill="url(#a)" d="M24.306 12.75h-2.084V9.917C22.222 4.449 17.861 0 12.5 0 7.14 0 2.778 4.449 2.778 9.917v.708a.7.7 0 00.694.708H6.25a.701.701 0 00.694-.708v-.708c0-3.125 2.493-5.667 5.556-5.667s5.556 2.542 5.556 5.667v2.833H.694a.701.701 0 00-.694.708v17.709C0 32.729 1.246 34 2.778 34h19.444C23.754 34 25 32.73 25 31.167V13.458a.701.701 0 00-.694-.708z"/></g></svg>