<svg xmlns="http://www.w3.org/2000/svg" width="29" height="31"><g fill="none"><path fill="#F95428" d="M19 24.605L17 25l.394-2c.384.074.75.26 1.048.558.297.297.483.663.558 1.047z"/><path fill="#F2F2F2" d="M20 23.69l-.277.054-1.295.256a1.802 1.802 0 00-.496-.932 1.799 1.799 0 00-.932-.496L17.31 21A4.78 4.78 0 0120 23.69z"/><path fill="#CCC" d="M29 16.175L27.175 18A5.061 5.061 0 0024 14.826L25.825 13A5.065 5.065 0 0129 16.175z"/><path d="M26.99 17.993l-3.56 3.537-2.44 2.423a5.253 5.253 0 00-1.18-1.784v-.001l6.02-5.98.019-.019a4.71 4.71 0 011.14 1.824zm-8.978 3.002l2.67-2.651v-.001l2.747-2.728.583-.58a4.76 4.76 0 011.836 1.134l-.019.019-6.02 5.98a5.293 5.293 0 00-1.796-1.172z" fill="#F95428"/><path fill="#F2F2F2" d="M21 24.832V28H4V5h3.377c.056.58.551 1.034 1.154 1.034h.093c.64 0 1.16.514 1.16 1.148 0 .317.13.604.34.812.21.207.501.336.821.336h3.11c.641 0 1.16-.514 1.16-1.148 0-.317.13-.604.34-.812.21-.208.5-.336.821-.336h.093c.603 0 1.098-.454 1.154-1.034H21v14.01l-2.755 2.724-.354 1.775-.4 2.008 2.03-.396 1.479-.29v.001zm-8.166-1.07a3.138 3.138 0 001.43-2.63c0-1.74-1.427-3.152-3.188-3.152-1.76 0-3.188 1.411-3.188 3.152 0 1.74 1.427 3.153 3.188 3.153a3.19 3.19 0 001.758-.523z"/><path fill="#F7B239" d="M11 21h3c0 1.253-.535 2.357-1.346 3L11 21z"/><path fill="#2BA5F7" d="M14 21h-3v-3a3 3 0 013 3z"/><path fill="#F95428" d="M10.223 21L12 23.502c-.51.315-1.12.498-1.777.498C8.443 24 7 22.656 7 21c0-1.657 1.443-3 3.223-3v3z"/><g fill="#F7B239"><path d="M7.3 4.629c0 .037.002.074.007.11l-.006.002H3.894v22.484h17.185v-3.097l.32-.06 2.544-2.434v6.392c0 1.07-.907 1.939-2.026 1.939H3.057c-1.12 0-2.028-.869-2.028-1.94V3.94c0-1.07.908-1.938 2.028-1.938H7.3V4.63z"/><path d="M23.943 3.94v11.756l-2.864 2.739V4.74h-3.407l-.007-.001a.857.857 0 00.007-.111V2h4.245c1.12 0 2.026.868 2.026 1.938z"/></g><path fill="#CCC" d="M17 2.455v2.869c0 .04-.002.081-.006.121-.055.62-.538 1.104-1.126 1.104h-.09c-.312 0-.595.137-.8.359a1.275 1.275 0 00-.331.866c0 .678-.506 1.226-1.132 1.226h-3.03c-.313 0-.596-.137-.8-.359a1.275 1.275 0 01-.332-.867c0-.676-.506-1.225-1.13-1.225h-.091c-.588 0-1.07-.485-1.126-1.104A1.058 1.058 0 017 5.324V2.225C7 1.548 7.506 1 8.132 1h7.736C16.494 1 17 1.548 17 2.225v.23z"/><g fill="#333"><path d="M28.917 16.394a5.441 5.441 0 00-3.396-3.39.583.583 0 00-.598.14l-1.341 1.339V3.913a2.56 2.56 0 00-2.56-2.556H17.42A1.73 1.73 0 0015.733 0H7.901a1.73 1.73 0 00-1.687 1.357h-3.6A2.561 2.561 0 00.053 3.912v24.532A2.562 2.562 0 002.613 31h18.408a2.561 2.561 0 002.56-2.556v-6.269l5.196-5.184a.58.58 0 00.14-.597zM6.32 5.31A1.73 1.73 0 007.9 6.339h.092c.31 0 .563.252.563.561 0 .951.775 1.725 1.727 1.725h3.068c.953 0 1.728-.774 1.728-1.725 0-.31.252-.561.563-.561h.091a1.73 1.73 0 001.58-1.03h2.308v13.126l-2.547 2.543a.58.58 0 00-.16.298l-.744 3.768a.58.58 0 00.684.682l2.767-.545v1.866H4.013V5.31h2.308zm13.342 18.678l-.523.103a2.61 2.61 0 00-1.332-1.33l.103-.521a4.836 4.836 0 011.752 1.748zm-2.092-.03a1.46 1.46 0 01.37.37l-.46.09.09-.46zm3.11-.533a5.983 5.983 0 00-.565-.816l5.315-5.303c.203.267.375.56.51.87l-5.26 5.25zm-1.388-1.638a5.98 5.98 0 00-.818-.564l5.26-5.25c.312.136.604.308.872.511l-5.314 5.303zm3.124-17.875v11.733l-1.631 1.628V4.728a.582.582 0 00-.582-.58H17.46V2.52h3.56c.77 0 1.396.625 1.396 1.392zM7.339 1.724c0-.31.252-.561.562-.561h7.832c.31 0 .563.251.563.561v2.891c0 .31-.253.561-.563.561h-.091c-.953 0-1.728.774-1.728 1.724 0 .31-.253.562-.563.562h-3.068a.563.563 0 01-.562-.562c0-.95-.776-1.724-1.728-1.724H7.9a.563.563 0 01-.562-.561v-2.89zm15.078 26.72c0 .768-.626 1.393-1.396 1.393H2.614c-.77 0-1.396-.625-1.396-1.393V3.912c0-.768.626-1.392 1.396-1.392h3.56v1.627H3.43a.582.582 0 00-.583.581v22.9c0 .322.261.582.583.582h16.773c.321 0 .582-.26.582-.581v-2.701a.58.58 0 00.142-.104l1.489-1.486v5.106zm4.396-11.137a5.462 5.462 0 00-2.207-2.203l.873-.87a4.28 4.28 0 012.206 2.202l-.872.87z"/><path d="M6.4 11.238h10.834a.582.582 0 100-1.163H6.4a.582.582 0 100 1.163zm0 2.877h10.834a.582.582 0 100-1.162H6.4a.582.582 0 100 1.162zm10.834 1.715H13.48a.582.582 0 100 1.163h3.754a.582.582 0 100-1.162zm-7.047-11.8h3.261a.582.582 0 100-1.162h-3.261a.582.582 0 100 1.163zm.225 13.04a3.728 3.728 0 00-3.727 3.72 3.728 3.728 0 007.455 0 3.728 3.728 0 00-3.728-3.72zm1.083 4.302h1.412a2.552 2.552 0 01-.634 1.175l-.778-1.175zm1.412-1.163h-1.912v-1.908c.946.22 1.692.964 1.912 1.908zm-5.057.582c0-1.21.847-2.226 1.98-2.49v2.49c0 .118.036.228.097.32l.002.004v.001l1.373 2.073a2.563 2.563 0 01-3.453-2.398z"/></g></g></svg>