<svg xmlns="http://www.w3.org/2000/svg" width="39" height="49"><g fill="none" fill-rule="evenodd"><path fill="#68DEFF" stroke="#014463" stroke-width="1.5" d="M37.432 45.534L35.064 9.64c-.128-.905-.768-1.552-1.6-1.552H5.048c-.832 0-1.472.647-1.6 1.552L1.016 45.728c-.064.518.064 1.035.384 1.423.32.388.768.647 1.216.647h33.28c.896 0 1.6-.84 1.6-1.811 0-.194 0-.323-.064-.453z"/><path fill="#C8F3FF" d="M34.987 46.787c.848 0 1.513-.794 1.513-1.712 0-.183 0-.305-.06-.428L34.2 10.713c-.12-.856-.725-1.467-1.512-1.467H5.824c-.787 0-1.392.611-1.513 1.467" opacity=".525"/><path fill="#4A4A4A" d="M1.516 45.83c-.064.517.064 1.034.384 1.422.32.388.768.647 1.216.647h33.28c.896 0 1.6-.84 1.6-1.811 0-.194 0-.323-.064-.453" opacity=".145"/><path fill="#F0F0F0" d="M16.503.099c-3.235 0-5.85 3.977-5.85 7.179 0 .323.262.582.588.582a.583.583 0 00.589-.582c0-2.555 2.091-4.624 4.673-4.624s4.673 2.07 4.673 4.624c0 .323.262.582.589.582a.583.583 0 00.588-.582c0-3.17-2.614-7.179-5.85-7.179z" opacity=".192"/><path fill="#014463" d="M16.503 1.522c-3.235 0-5.85 2.587-5.85 5.788 0 .324.262.582.588.582a.583.583 0 00.589-.582c0-2.554 2.091-4.624 4.673-4.624s4.673 2.07 4.673 4.624c0 .324.262.582.589.582a.583.583 0 00.588-.582c0-3.201-2.614-5.788-5.85-5.788z"/><path fill="#7CECF2" d="M21.765 7.86a.583.583 0 01-.589-.582c0-1.876-1.143-3.493-2.777-4.204a5.8 5.8 0 013.856 4.527.578.578 0 01-.49.259zm-9.425-.633a.583.583 0 01-.588.582.564.564 0 01-.49-.29c.36-2.103 1.863-3.816 3.856-4.528-1.634.744-2.778 2.36-2.778 4.236z" opacity=".179"/><g><path fill="#F0F0F0" d="M20.503.099c-3.235 0-5.85 3.977-5.85 7.179 0 .323.262.582.588.582a.583.583 0 00.589-.582c0-2.555 2.091-4.624 4.673-4.624s4.673 2.07 4.673 4.624c0 .323.262.582.589.582a.583.583 0 00.588-.582c0-3.17-2.614-7.179-5.85-7.179z" opacity=".192"/><path fill="#014463" d="M20.503 1.522c-3.235 0-5.85 2.587-5.85 5.788 0 .324.262.582.588.582a.583.583 0 00.589-.582c0-2.554 2.091-4.624 4.673-4.624s4.673 2.07 4.673 4.624c0 .324.262.582.589.582a.583.583 0 00.588-.582c0-3.201-2.614-5.788-5.85-5.788z"/><path fill="#7CECF2" d="M25.765 7.86a.583.583 0 01-.589-.582c0-1.876-1.143-3.493-2.777-4.204a5.8 5.8 0 013.856 4.527.578.578 0 01-.49.259zm-9.425-.633a.583.583 0 01-.588.582.564.564 0 01-.49-.29c.36-2.103 1.863-3.816 3.856-4.528-1.634.744-2.778 2.36-2.778 4.236z" opacity=".179"/></g></g></svg>