<svg xmlns="http://www.w3.org/2000/svg" width="43" height="46"><g fill="none" fill-rule="evenodd"><path fill="#62A12E" d="M13.856 33.64c-1.27 0-2.24-.987-2.24-2.28V13.12c0-1.293.97-2.28 2.24-2.28H25.8V3.238c0-1.217-.97-2.28-2.24-2.28H4.15c-1.268 0-2.239.987-2.239 2.28V42.76c0 1.217.97 2.28 2.24 2.28h19.41c1.194 0 2.239-.987 2.239-2.28v-9.12H13.856"/><path fill="#F8F8F8" d="M13.856 33.956c-1.27 0-2.24-.992-2.24-2.287V13.373c0-1.296.97-2.287 2.24-2.287H25.8V5.75H1.911v33.542H25.8v-5.336H13.856"/><path fill="#FFFFFE" d="M3.44 42.761V3.24c0-1.217.994-2.28 2.293-2.28H4.204c-1.223 0-2.293.987-2.293 2.28v39.52c0 1.217.994 2.28 2.293 2.28h1.53c-1.224 0-2.294-.987-2.294-2.28"/><path fill="#70B7E5" d="M39.807 33.542H13.704c-1.268 0-2.237-.997-2.237-2.3v-18.4c0-1.304.97-2.3 2.237-2.3h26.103c1.268 0 2.237.996 2.237 2.3v18.4c0 1.303-.97 2.3-2.237 2.3"/><path fill="#FFF" d="M11.467 19.167h30.577v-4.792H11.467z"/><path fill="#FFF" d="M39.751 10.542h-1.529c1.3 0 2.294.996 2.294 2.3v18.4c0 1.303-.994 2.3-2.294 2.3h1.53c1.299 0 2.292-.997 2.292-2.3v-18.4c0-1.304-.993-2.3-2.293-2.3"/><path fill="#FFF" d="M29.622 30.667h9.556v-5.75h-9.556z"/><path fill="#5199C7" d="M37.267 30.667h1.91v-5.75h-1.91z"/><path fill="#014463" d="M17.336 3.833h-4.095c-.491 0-.819-.383-.819-.958s.328-.958.82-.958h4.094c.492 0 .82.383.82.958s-.328.958-.82.958m-7.462 0h-.637c-.382 0-.637-.383-.637-.958s.255-.958.637-.958h.637c.382 0 .637.383.637.958s-.255.958-.637.958M.955 8.625C.382 8.625 0 8.369 0 7.986v-.639c0-.383.382-.639.955-.639.574 0 .956.256.956.64v.638c0 .383-.382.639-.956.639m0 2.875c-.573 0-.955-.256-.955-.639v-.639c0-.383.382-.639.955-.639.574 0 .956.256.956.64v.638c0 .383-.382.639-.956.639m0 3.833c-.573 0-.955-.255-.955-.639v-.638c0-.384.382-.64.955-.64.574 0 .956.256.956.64v.638c0 .384-.382.64-.956.64M13.378 40.73a1.44 1.44 0 00-1.434 1.437c0 .79.645 1.437 1.434 1.437a1.44 1.44 0 001.433-1.437 1.44 1.44 0 00-1.433-1.438zm0 4.312a2.88 2.88 0 01-2.867-2.875 2.88 2.88 0 012.867-2.875 2.88 2.88 0 012.866 2.875 2.88 2.88 0 01-2.866 2.875zm.155-33.902c-.83 0-1.51.701-1.51 1.558v18.687c0 .857.68 1.558 1.51 1.558h26.445c.83 0 1.51-.701 1.51-1.558V12.698c0-.857-.68-1.557-1.51-1.557H13.533zM39.978 34.5H13.533c-1.662 0-3.022-1.402-3.022-3.115V12.698c0-1.713 1.36-3.115 3.022-3.115h26.445c1.662 0 3.022 1.402 3.022 3.115v18.687c0 1.713-1.36 3.115-3.022 3.115z"/><path fill="#014463" d="M12.022 17.73H41.49v-2.876H12.022v2.875zm30.222 1.437H11.267c-.454 0-.756-.288-.756-.72v-4.312c0-.43.302-.718.756-.718h30.977c.454 0 .756.287.756.718v4.313c0 .431-.302.719-.756.719zM30.195 30.134h8.41v-3.727h-8.41v3.727zm9.174 1.491H29.43c-.459 0-.764-.298-.764-.745v-5.218c0-.447.305-.745.764-.745h9.938c.458 0 .764.298.764.745v5.218c0 .447-.306.745-.764.745zm-21.077-7.667h-4.095c-.492 0-.82-.383-.82-.958s.328-.958.82-.958h4.095c.492 0 .82.383.82.958s-.328.958-.82.958m7.677 0h-5.115c-.473 0-.787-.383-.787-.958s.314-.958.787-.958h5.115c.472 0 .787.383.787.958s-.315.958-.787.958m-4.714 2.875H14.1c-.433 0-.722-.383-.722-.958s.289-.958.722-.958h7.155c.434 0 .723.383.723.958s-.362.958-.723.958m3.81 0h-1.397c-.44 0-.735-.383-.735-.958s.294-.958.735-.958h1.397c.441 0 .735.383.735.958s-.294.958-.735.958"/><path fill="#014463" d="M2.473 38.708h22.765v-3.854H13.856c-1.67 0-3.036-1.387-3.036-3.083v-18.5c0-1.696 1.366-3.084 3.036-3.084h11.382V6.333H2.473v32.375zm24.283 1.542H.956V4.792h25.8v6.937h-12.9c-.835 0-1.518.694-1.518 1.542v18.5c0 .848.683 1.541 1.518 1.541h12.9v6.938z"/><path fill="#014463" d="M3.99 1.533a1.53 1.53 0 00-1.517 1.534v39.866a1.53 1.53 0 001.518 1.534h19.73a1.53 1.53 0 001.517-1.534V34.5H13.856c-1.67 0-3.036-1.38-3.036-3.067v-18.4c0-1.686 1.366-3.066 3.036-3.066h11.382v-6.9a1.53 1.53 0 00-1.518-1.534H3.99zM23.72 46H3.99C2.322 46 .957 44.62.957 42.933V3.067C.956 1.38 2.32 0 3.99 0h19.73c1.669 0 3.035 1.38 3.035 3.067V11.5h-12.9a1.53 1.53 0 00-1.518 1.533v18.4a1.53 1.53 0 001.518 1.534h12.9v9.966C26.756 44.62 25.39 46 23.72 46z"/></g></svg>