<svg version="1.1" id="Layer_1" xmlns="http://www.w3.org/2000/svg" xmlns:xlink="http://www.w3.org/1999/xlink" x="0" y="0" viewBox="0 0 182 37" xml:space="preserve"><style>.st3{fill:#555657}.st259{fill:#fb412f}</style><linearGradient id="SVGID_1_" gradientUnits="userSpaceOnUse" x1="11.874" y1="21.976" x2="26.09" y2="39.07"><stop offset="0" stop-color="#ff0443"/><stop offset=".538" stop-color="#ff332d"/><stop offset="1" stop-color="#ff5a40"/></linearGradient><path d="M30.4 36.3c.6 0 1.1-.6.9-1.2-.5-1.9-2-4.6-5.8-6-6.5-2.4-6-9.6-5.5-10.9 0 0-7 .4-9.5 7.2-1.9 5.1 1.1 9.4 1.8 11l18.1-.1z" fill="url(#SVGID_1_)"/><linearGradient id="SVGID_2_" gradientUnits="userSpaceOnUse" x1="23.652" y1="5.333" x2=".852" y2="41.538"><stop offset=".162" stop-color="#ffaf4e"/><stop offset=".538" stop-color="#ff8042"/><stop offset="1" stop-color="#ff5a40"/></linearGradient><path d="M5.5 36.3h13.4c-1.7-1.1-4.2-3.5-4.1-8 .1-6.5 5-9.6 9.3-9.4h.5c.6.1 1.1.3 1.6.4 1.5.3 2.9-.5 3.4-2 .4-1.3.8-2.7.7-3.1-.1-.9.7-.8.4-1.6-.3-.9-3.9-3.9-4.2-4.2-.2-.4-.2-.8-.4-1.4-.2-.6-.4-.7-1.8-1.5-.9-.6-3.3-1.3-4.8-1.7-.8-.2-1.6-.7-2.1-1.5C16.3.7 15.6.4 14.5.8c-1.2.4-1.1 2.5-1.1 2.8 0 0-1.7.4-3.2 1.5-5.6 4-10.9 15.6-5.7 30.5.2.4.6.7 1 .7z" fill="url(#SVGID_2_)"/><defs><path id="SVGID_188_" d="M5.4 36.3h13.5c-1.7-1.1-4.2-3.5-4.1-8 .1-6.5 5-9.6 9.3-9.4h.5c.6.1 1.1.3 1.6.4 1.5.3 2.9-.5 3.4-2 .4-1.3.8-2.7.7-3.1-.1-.9.7-.8.4-1.6-.3-.9-3.9-3.9-4.2-4.2-.2-.4-.2-.8-.4-1.4-.2-.6-.4-.7-1.8-1.5-.9-.6-3.3-1.3-4.8-1.7-.8-.2-1.6-.7-2.1-1.5C16.3.7 15.6.4 14.5.8c-1.2.4-1.1 2.5-1.1 2.8 0 0-1.7.4-3.2 1.5-5.6 4-10.9 15.6-5.7 30.5.2.4.5.7.9.7z"/></defs><clipPath id="SVGID_3_"><use xlink:href="#SVGID_188_" overflow="visible"/></clipPath><g opacity=".65" clip-path="url(#SVGID_3_)"><defs><path id="SVGID_190_" d="M11.8 13S-.5 25.5-4.8 41.4c-1.5 5.7-.9-23.5 16.6-28.4z"/></defs><clipPath id="SVGID_4_"><use xlink:href="#SVGID_190_" overflow="visible"/></clipPath><path clip-path="url(#SVGID_4_)" fill="#ec2e2a" d="M.2 13l-1.8 34.1h-.2L0 13z"/><path clip-path="url(#SVGID_4_)" fill="#ec2f2a" d="M.4 13l-1.7 34.1h-.3L.2 13z"/><path clip-path="url(#SVGID_4_)" fill="#eb312b" d="M.7 13l-1.8 34.1h-.2L.4 13z"/><path clip-path="url(#SVGID_4_)" fill="#eb322b" d="M.9 13L-.9 47.1h-.2L.7 13z"/><path clip-path="url(#SVGID_4_)" fill="#eb332c" d="M1.1 13L-.7 47.1h-.2L.9 13z"/><path clip-path="url(#SVGID_4_)" fill="#eb342c" d="M1.3 13L-.4 47.1h-.3L1.1 13z"/><path clip-path="url(#SVGID_4_)" fill="#eb352c" d="M1.6 13L-.2 47.1h-.2L1.3 13z"/><path clip-path="url(#SVGID_4_)" fill="#eb362d" d="M1.8 13L0 47.1h-.2L1.6 13z"/><path clip-path="url(#SVGID_4_)" fill="#eb372d" d="M2 13L.2 47.1H0L1.8 13z"/><path clip-path="url(#SVGID_4_)" fill="#eb382e" d="M2.3 13L.5 47.1H.2L2 13z"/><path clip-path="url(#SVGID_4_)" fill="#eb392e" d="M2.5 13L.7 47.1H.5L2.3 13z"/><path clip-path="url(#SVGID_4_)" fill="#eb3a2e" d="M2.7 13L.9 47.1H.7L2.5 13z"/><path clip-path="url(#SVGID_4_)" fill="#eb3b2f" d="M2.9 13L1.2 47.1H.9L2.7 13z"/><path clip-path="url(#SVGID_4_)" fill="#eb3c2f" d="M3.2 13L1.4 47.1h-.2L2.9 13z"/><path clip-path="url(#SVGID_4_)" fill="#ea3d30" d="M3.4 13L1.6 47.1h-.2L3.2 13z"/><path clip-path="url(#SVGID_4_)" fill="#ea3e30" d="M3.6 13L1.8 47.1h-.2L3.4 13z"/><path clip-path="url(#SVGID_4_)" fill="#ea3f30" d="M3.8 13L2.1 47.1h-.3L3.6 13z"/><path clip-path="url(#SVGID_4_)" fill="#ea4031" d="M4.1 13L2.3 47.1h-.2L3.8 13z"/><path clip-path="url(#SVGID_4_)" fill="#ea4131" d="M4.3 13L2.5 47.1h-.2L4.1 13z"/><path clip-path="url(#SVGID_4_)" fill="#ea4232" d="M4.5 13L2.7 47.1h-.2L4.3 13z"/><path clip-path="url(#SVGID_4_)" fill="#ea4332" d="M4.8 13L3 47.1h-.3L4.5 13z"/><path clip-path="url(#SVGID_4_)" fill="#ea4332" d="M5 13L3.3 47.1H3L4.8 13z"/><path clip-path="url(#SVGID_4_)" fill="#ea4433" d="M5.3 13L3.6 47.1h-.3L5 13z"/><path clip-path="url(#SVGID_4_)" fill="#eb4534" d="M5.6 13L3.9 47.1h-.3L5.3 13z"/><path clip-path="url(#SVGID_4_)" fill="#eb4635" d="M5.9 13L4.2 47.1h-.3L5.6 13z"/><path clip-path="url(#SVGID_4_)" fill="#eb4736" d="M6.2 13L4.4 47.1h-.2L5.9 13z"/><path clip-path="url(#SVGID_4_)" fill="#eb4837" d="M6.5 13L4.7 47.1h-.3L6.2 13z"/><path clip-path="url(#SVGID_4_)" fill="#ec4937" d="M6.8 13L5 47.1h-.3L6.5 13z"/><path clip-path="url(#SVGID_4_)" fill="#ec4a38" d="M7.1 13L5.3 47.1H5L6.8 13z"/><path clip-path="url(#SVGID_4_)" fill="#ec4b39" d="M7.4 13L5.6 47.1h-.3L7.1 13z"/><path clip-path="url(#SVGID_4_)" fill="#ec4c3a" d="M7.7 13L5.9 47.1h-.3L7.4 13z"/><path clip-path="url(#SVGID_4_)" fill="#ed4d3b" d="M8 13L6.2 47.1h-.3L7.7 13z"/><path clip-path="url(#SVGID_4_)" fill="#ed4e3c" d="M8.3 13L6.5 47.1h-.3L8 13z"/><path clip-path="url(#SVGID_4_)" fill="#ed503d" d="M8.6 13L6.8 47.1h-.3L8.3 13z"/><path clip-path="url(#SVGID_4_)" fill="#ed513e" d="M8.9 13L7.1 47.1h-.3L8.6 13z"/><path clip-path="url(#SVGID_4_)" fill="#ee523f" d="M9.2 13L7.4 47.1h-.3L8.9 13z"/><path clip-path="url(#SVGID_4_)" fill="#ee5340" d="M9.5 13L7.7 47.1h-.3L9.2 13z"/><path clip-path="url(#SVGID_4_)" fill="#ee5441" d="M9.8 13L8 47.1h-.3L9.5 13z"/><path clip-path="url(#SVGID_4_)" fill="#ee5542" d="M10.1 13L8.3 47.1H8L9.8 13z"/><path clip-path="url(#SVGID_4_)" fill="#ef5642" d="M10.4 13L8.6 47.1h-.3L10.1 13z"/><path clip-path="url(#SVGID_4_)" fill="#ef5743" d="M10.7 13L8.9 47.1h-.3L10.4 13z"/><path clip-path="url(#SVGID_4_)" fill="#ef5844" d="M11 13L9.2 47.1h-.3L10.7 13z"/><path clip-path="url(#SVGID_4_)" fill="#ef5945" d="M11.3 13L9.5 47.1h-.3L11 13z"/><path clip-path="url(#SVGID_4_)" fill="#f05a46" d="M11.6 13L9.8 47.1h-.3L11.3 13z"/><path clip-path="url(#SVGID_4_)" fill="#f05b47" d="M11.8 13l-1.7 34.1h-.3L11.6 13z"/><path clip-path="url(#SVGID_4_)" fill="#f05b47" d="M10.1 47.1L11.8 13v34.1z"/></g><g opacity=".63" clip-path="url(#SVGID_3_)"><defs><path id="SVGID_192_" d="M11.5 20.6S1.6 36.5 3.3 52.8c.6 5.8-13-19.1 8.2-32.2z"/></defs><clipPath id="SVGID_5_"><use xlink:href="#SVGID_192_" overflow="visible"/></clipPath><path clip-path="url(#SVGID_5_)" fill="#ed1d23" d="M.6 20.6l-2 38h-5.7l-2.6-.1V20.6z"/><path clip-path="url(#SVGID_5_)" fill="#ed1d23" d="M.8 20.6l-2 38h-.2l2-38z"/><path clip-path="url(#SVGID_5_)" fill="#ed1e23" d="M.9 20.6l-2 38h-.1l2-38z"/><path clip-path="url(#SVGID_5_)" fill="#ed1f24" d="M1.1 20.6l-2 38h-.2l2-38z"/><path clip-path="url(#SVGID_5_)" fill="#ed2024" d="M1.2 20.6l-2 38h-.1l2-38z"/><path clip-path="url(#SVGID_5_)" fill="#ed2125" d="M1.4 20.6l-2 38h-.2l2-38z"/><path clip-path="url(#SVGID_5_)" fill="#ed2225" d="M1.5 20.6l-1.9 38h-.2l2-38z"/><path clip-path="url(#SVGID_5_)" fill="#ed2325" d="M1.7 20.6l-2 38h-.1l1.9-38z"/><path clip-path="url(#SVGID_5_)" fill="#ec2426" d="M1.9 20.6l-2 38h-.2l2-38z"/><path clip-path="url(#SVGID_5_)" fill="#ec2526" d="M2 20.6l-2 38h-.1l2-38z"/><path clip-path="url(#SVGID_5_)" fill="#ec2627" d="M2.2 20.6l-2 38H0l2-38z"/><path clip-path="url(#SVGID_5_)" fill="#ec2727" d="M2.3 20.6l-2 38H.2l2-38z"/><path clip-path="url(#SVGID_5_)" fill="#ec2827" d="M2.5 20.6l-2 38H.3l2-38z"/><path clip-path="url(#SVGID_5_)" fill="#ec2928" d="M2.6 20.6l-2 38H.5l2-38z"/><path clip-path="url(#SVGID_5_)" fill="#ec2a28" d="M2.8 20.6l-2 38H.6l2-38z"/><path clip-path="url(#SVGID_5_)" fill="#ec2b29" d="M3 20.6l-2 38H.8l2-38z"/><path clip-path="url(#SVGID_5_)" fill="#ec2c29" d="M3.1 20.6l-2 38H1l2-38z"/><path clip-path="url(#SVGID_5_)" fill="#ec2d29" d="M3.3 20.6l-2 38h-.2l2-38z"/><path clip-path="url(#SVGID_5_)" fill="#ec2e2a" d="M3.4 20.6l-2 38h-.1l2-38z"/><path clip-path="url(#SVGID_5_)" fill="#ec2f2a" d="M3.6 20.6l-2 38h-.2l2-38z"/><path clip-path="url(#SVGID_5_)" fill="#eb312b" d="M3.7 20.6l-2 38h-.1l2-38z"/><path clip-path="url(#SVGID_5_)" fill="#eb322b" d="M3.9 20.6l-2 38h-.2l2-38z"/><path clip-path="url(#SVGID_5_)" fill="#eb332c" d="M4.1 20.6l-2 38h-.2l2-38z"/><path clip-path="url(#SVGID_5_)" fill="#eb342c" d="M4.2 20.6l-2 38h-.1l2-38z"/><path clip-path="url(#SVGID_5_)" fill="#eb352c" d="M4.4 20.6l-2 38h-.2l2-38z"/><path clip-path="url(#SVGID_5_)" fill="#eb362d" d="M4.5 20.6l-2 38h-.1l2-38z"/><path clip-path="url(#SVGID_5_)" fill="#eb372d" d="M4.7 20.6l-2 38h-.2l2-38z"/><path clip-path="url(#SVGID_5_)" fill="#eb382e" d="M4.8 20.6l-2 38h-.1l2-38z"/><path clip-path="url(#SVGID_5_)" fill="#eb392e" d="M5 20.6l-2 38h-.2l2-38z"/><path clip-path="url(#SVGID_5_)" fill="#eb3a2e" d="M5.1 20.6l-1.9 38H3l2-38z"/><path clip-path="url(#SVGID_5_)" fill="#eb3b2f" d="M5.3 20.6l-2 38h-.1l1.9-38z"/><path clip-path="url(#SVGID_5_)" fill="#eb3c2f" d="M5.5 20.6l-2 38h-.2l2-38z"/><path clip-path="url(#SVGID_5_)" fill="#ea3d30" d="M5.6 20.6l-2 38h-.1l2-38z"/><path clip-path="url(#SVGID_5_)" fill="#ea3e30" d="M5.8 20.6l-2 38h-.2l2-38z"/><path clip-path="url(#SVGID_5_)" fill="#ea3f30" d="M5.9 20.6l-2 38h-.1l2-38z"/><path clip-path="url(#SVGID_5_)" fill="#ea4031" d="M6.1 20.6l-2 38h-.2l2-38z"/><path clip-path="url(#SVGID_5_)" fill="#ea4131" d="M6.2 20.6l-1.9 38h-.2l2-38z"/><path clip-path="url(#SVGID_5_)" fill="#ea4232" d="M6.4 20.6l-2 38h-.1l1.9-38z"/><path clip-path="url(#SVGID_5_)" fill="#ea4332" d="M6.6 20.6l-2 38h-.2l2-38z"/><path clip-path="url(#SVGID_5_)" fill="#ea4332" d="M6.8 20.6l-2 38h-.2l2-38z"/><path clip-path="url(#SVGID_5_)" fill="#ea4433" d="M7 20.6l-2 38h-.2l2-38z"/><path clip-path="url(#SVGID_5_)" fill="#eb4534" d="M7.2 20.6l-2 38H5l2-38z"/><path clip-path="url(#SVGID_5_)" fill="#eb4635" d="M7.4 20.6l-2 38h-.2l2-38z"/><path clip-path="url(#SVGID_5_)" fill="#eb4736" d="M7.6 20.6l-2 38h-.2l2-38z"/><path clip-path="url(#SVGID_5_)" fill="#eb4837" d="M7.8 20.6l-2 38h-.2l2-38z"/><path clip-path="url(#SVGID_5_)" fill="#ec4937" d="M8 20.6l-2 38h-.2l2-38z"/><path clip-path="url(#SVGID_5_)" fill="#ec4a38" d="M8.2 20.6l-2 38H6l2-38z"/><path clip-path="url(#SVGID_5_)" fill="#ec4b39" d="M8.4 20.6l-2 38h-.2l2-38z"/><path clip-path="url(#SVGID_5_)" fill="#ec4c3a" d="M8.6 20.6l-2 38h-.2l2-38z"/><path clip-path="url(#SVGID_5_)" fill="#ed4d3b" d="M8.8 20.6l-2 38h-.2l2-38z"/><path clip-path="url(#SVGID_5_)" fill="#ed4e3c" d="M9 20.6l-2 38h-.2l2-38z"/><path clip-path="url(#SVGID_5_)" fill="#ed503d" d="M9.2 20.6l-2 38H7l2-38z"/><path clip-path="url(#SVGID_5_)" fill="#ed513e" d="M9.4 20.6l-2 38h-.2l2-38z"/><path clip-path="url(#SVGID_5_)" fill="#ee523f" d="M9.6 20.6l-2 38h-.2l2-38z"/><path clip-path="url(#SVGID_5_)" fill="#ee5340" d="M9.8 20.6l-2 38h-.2l2-38z"/><path clip-path="url(#SVGID_5_)" fill="#ee5441" d="M10 20.6l-2 38h-.2l2-38z"/><path clip-path="url(#SVGID_5_)" fill="#ee5542" d="M10.2 20.6l-2 38H8l2-38z"/><path clip-path="url(#SVGID_5_)" fill="#ef5642" d="M10.4 20.6l-2 38h-.2l2-38z"/><path clip-path="url(#SVGID_5_)" fill="#ef5743" d="M10.6 20.6l-2 38h-.2l2-38z"/><path clip-path="url(#SVGID_5_)" fill="#ef5844" d="M10.8 20.6l-1.9 38h-.3l2-38z"/><path clip-path="url(#SVGID_5_)" fill="#ef5945" d="M11.1 20.6l-2 38h-.2l1.9-38z"/><path clip-path="url(#SVGID_5_)" fill="#f05a46" d="M11.3 20.6l-2 38h-.2l2-38z"/><path clip-path="url(#SVGID_5_)" fill="#f05b47" d="M11.5 20.6l-2 38h-.2l2-38z"/><path clip-path="url(#SVGID_5_)" fill="#f05b47" d="M9.5 58.6l2-38v38z"/></g><g><path class="st3" d="M49.1 23.2h-2.9v6.1H43V13.4h7.2c3.4 0 5.4 1.8 5.4 5 0 2.3-1.1 3.8-3.1 4.5l4.4 6.4h-3.8l-4-6.1zm-3-2.6h3.4c1.6 0 2.6-.8 2.6-2.2s-1-2.2-2.6-2.2h-3.4v4.4zM72.3 26.6v2.7H61.1V13.4h11v2.7h-7.8v3.7H71v2.7h-6.7v4.2h8zM77.2 13.4h3.5l7.1 10.8-.1-10.8h3.1v15.8h-3.5l-7.1-10.8.1 10.8h-3.1V13.4zM108.5 16.1h-5.1v13.2h-3.2V16.1h-5.1v-2.7h13.4v2.7z"/></g><g><path class="st259" d="M112.7 27.9l1.5-2.5c1.5.9 3.2 1.5 4.6 1.5 1.8 0 2.9-.7 2.9-1.8 0-3.1-8.9-1.6-8.9-7.2 0-2.8 2.2-4.5 5.9-4.5 2.1 0 4.2.6 5.9 1.6l-1.8 2.4c-1.3-.8-2.8-1.3-4-1.3-1.7 0-2.6.6-2.6 1.6 0 2.5 8.9 1.6 8.9 7.2 0 2.9-2.3 4.7-6.3 4.7-2.1-.1-4.4-.7-6.1-1.7zM143.6 13.5v15.8h-3.2v-6.8h-7.2v6.8H130V13.5h3.2v6.4h7.2v-6.4h3.2zM160.7 26.7v2.7h-11.2V13.5h11v2.7h-7.8v3.7h6.7v2.7h-6.7v4.2h8zM171.8 23.3h-2.9v6.1h-3.2V13.5h7.2c3.4 0 5.4 1.8 5.4 5 0 2.3-1.1 3.8-3.1 4.5l4.4 6.4h-3.8l-4-6.1zm-2.9-2.6h3.4c1.6 0 2.6-.8 2.6-2.2s-1-2.2-2.6-2.2h-3.4v4.4z"/></g></svg>