<svg xmlns="http://www.w3.org/2000/svg" width="50" height="49"><g fill="none"><path fill="#ECEFF9" d="M14.97 37.177c-1.694 1.082-4.2.597-5.372-1.044L7.08 32.6l-1.052 1.39a1.44 1.44 0 00-.272 1.13c.072.403.303.758.65 1l13.805 9.596c.343.237.775.341 1.193.282.42-.06.79-.273 1.039-.6l16.782-22.185c.457-.602.67-1.323.622-2.061a5.45 5.45 0 01-1.005.819L14.97 37.177z"/><path fill="#F9412E" d="M29.205 2.785a3.081 3.081 0 00-2.401.54L4.014 19.664c-.337.24-.565.603-.647 1.02a1.62 1.62 0 00.218 1.187l8.768 13.838c.222.349.56.583.954.66h.001a1.47 1.47 0 001.132-.255l22.79-16.339a3.497 3.497 0 001.37-2.163l2.284-11.746a.813.813 0 00-.108-.595.73.73 0 00-.477-.33L29.205 2.785zm6.371 8.115c-1.153-.224-1.894-1.394-1.657-2.614.238-1.22 1.363-2.028 2.516-1.804 1.152.225 1.894 1.394 1.656 2.615-.237 1.22-1.363 2.027-2.515 1.803z" opacity=".451"/><path d="M10.412 23.034a1.052 1.052 0 01-.675-.449 1.067 1.067 0 01.287-1.476l3.725-2.528a1.052 1.052 0 011.468.286 1.067 1.067 0 01-.287 1.476l-3.724 2.528a1.052 1.052 0 01-.794.163zm-4.154-.807a1.052 1.052 0 01-.674-.449 1.067 1.067 0 01.287-1.477l6.207-4.212a1.052 1.052 0 011.468.285 1.067 1.067 0 01-.287 1.477l-6.207 4.212a1.053 1.053 0 01-.794.164zm5.825 3.299a1.052 1.052 0 01-.675-.448 1.067 1.067 0 01.287-1.477l3.725-2.528a1.052 1.052 0 011.468.286 1.067 1.067 0 01-.287 1.477l-3.724 2.527a1.052 1.052 0 01-.794.163zm.859 6.67a1.052 1.052 0 01-.675-.448 1.067 1.067 0 01.287-1.477l6.207-4.213a1.052 1.052 0 011.468.286 1.067 1.067 0 01-.287 1.476l-6.207 4.213a1.052 1.052 0 01-.793.163zm.812-4.177a1.052 1.052 0 01-.675-.449 1.067 1.067 0 01.287-1.477l3.724-2.527a1.052 1.052 0 011.469.285 1.067 1.067 0 01-.287 1.477l-3.725 2.528a1.052 1.052 0 01-.793.163z" fill="#014463"/><path fill="#71B956" d="M36.946 10.402l3.927.763-.382 1.964-3.926-.764z"/><g fill="#014463" transform="rotate(11 8.615 65.042)"><path d="M24.935 8.885c-1.792 0-3.251-1.484-3.251-3.309 0-1.825 1.459-3.31 3.251-3.31 1.793 0 3.252 1.485 3.252 3.31s-1.459 3.31-3.252 3.31zm0-4.412c-.598 0-1.083.495-1.083 1.103s.485 1.103 1.083 1.103c.599 0 1.084-.495 1.084-1.103s-.485-1.103-1.084-1.103z"/><path d="M34.69.06h-4.336c-.599 0-1.083.494-1.083 1.103 0 .61.484 1.104 1.083 1.104h4.335c.599 0 1.084.495 1.084 1.103 0 .607-.485 1.103-1.084 1.103h-8.67c-.6 0-1.084.494-1.084 1.103s.485 1.103 1.084 1.103h8.67c1.793 0 3.252-1.485 3.252-3.31 0-1.824-1.459-3.309-3.252-3.309z"/><ellipse cx="1.092" cy="25.431" rx="1.084" ry="1.103"/><ellipse cx="3.26" cy="27.638" rx="1.084" ry="1.103"/><ellipse cx="5.427" cy="29.844" rx="1.084" ry="1.103"/></g><path fill="#C4D7E5" d="M14.083 39.169a3.667 3.667 0 01-5.203-1.01l-2.39-3.677-.98 1.388 2.685 4.128 2.705 2.015a3.656 3.656 0 002.75-.615S30.488 28.61 36.43 23.545L14.083 39.169z"/><path fill="#014463" d="M41.835 20.178l-.522-3.372 1.992-10.247a3.013 3.013 0 00-.448-2.258 2.933 2.933 0 00-1.893-1.268L29.506.806a5.412 5.412 0 00-4.12.86L2.012 17.681a3.805 3.805 0 00-1.59 2.43 3.802 3.802 0 00.564 2.848l5.451 8.21-1.512 2.108a3.829 3.829 0 00-.673 2.83 3.75 3.75 0 001.496 2.473l13.283 9.744a3.686 3.686 0 002.79.668 3.751 3.751 0 002.45-1.529l16.577-23.14a5.617 5.617 0 00.986-4.145zm-39.258.351c.08-.413.313-.77.659-1.006L26.608 3.508a3.25 3.25 0 012.473-.516L40.539 5.22a.77.77 0 01.494.33.787.787 0 01.117.59l-2.26 11.627a3.387 3.387 0 01-1.398 2.135l-23.37 16.015a1.55 1.55 0 01-1.166.243h-.001a1.532 1.532 0 01-.99-.662l-1.729-2.605-1.546-2.33h-.001L2.812 21.71a1.572 1.572 0 01-.235-1.18zm36.495 2.492l-16.576 23.14a1.544 1.544 0 01-2.171.357L7.041 36.775a1.549 1.549 0 01-.618-1.025 1.589 1.589 0 01.278-1.172L7.74 33.13l2.402 3.619a3.698 3.698 0 002.39 1.598 3.689 3.689 0 002.813-.588l23.37-16.015c.226-.155.424-.339.622-.52l-.005.024c.05-.045.093-.093.141-.139.041-.04.084-.079.123-.12.035-.036.072-.067.105-.104a3.35 3.35 0 01-.63 2.137z"/></g></svg>