<svg xmlns="http://www.w3.org/2000/svg" width="87" height="64"><g fill="none"><path fill="#E6E6E6" d="M27.275 46.45a3.608 3.608 0 010 5.093 3.597 3.597 0 01-5.088 0 3.605 3.605 0 011.044-5.821 3.597 3.597 0 014.044.728z"/><path fill="#E6E6E6" d="M32.497 51.676a3.602 3.602 0 010 5.093 3.595 3.595 0 01-5.087 0 3.602 3.602 0 011.045-5.821 3.595 3.595 0 014.042.728z"/><path fill="#E6E6E6" d="M37.585 56.769a3.605 3.605 0 010 5.093 3.597 3.597 0 01-5.089 0 3.605 3.605 0 010-5.093 3.597 3.597 0 015.089 0z"/><path fill="#E3ECF5" d="M68.374 33.276a20.469 20.469 0 01-5.664 10.85l-2.041 2.043L44.93 30.416a2.392 2.392 0 00-.071-.07c-.013-.01-.023-.022-.034-.033l-.053-.052a.47.47 0 00-.043-.042l-2.144-2.149-5.284 5.29a4.152 4.152 0 01-2.948 1.22 4.173 4.173 0 01-2.946-7.12l9.116-9.125a10.521 10.521 0 017.464-3.094c1.49 0 2.98.314 4.365.942 2.161.982 4.7.548 6.379-1.131l2.906-2.908 13.287 13.3-.15.15-4.959 4.963a5.157 5.157 0 00-1.44 2.72z"/><path fill="#FAB639" d="M85 18.666L76.668 27l-1.691-1.69-13.175-13.175L60 10.332 68.334 2z"/><path fill="#FFF" d="M56.423 50.81l1.036 1.034a3.245 3.245 0 010 4.601 3.278 3.278 0 01-4.621 0l-2.446-2.435c.62.63.928 1.45.928 2.27 0 .834-.32 1.666-.957 2.301a3.277 3.277 0 01-4.618 0l-3.15-3.135a3.24 3.24 0 010 4.599 3.254 3.254 0 01-2.31.955 3.253 3.253 0 01-1.997-.68h-.002a3.571 3.571 0 00-.737-3.998 3.607 3.607 0 00-5.085 0 3.568 3.568 0 000-5.064 3.605 3.605 0 00-4.04-.723l-.158-.158-.114-.114-.264-.004a3.574 3.574 0 00-.642-4.197 3.608 3.608 0 00-4.04-.724l-1.594-1.586a20.32 20.32 0 01-5.636-10.653 5.589 5.589 0 00-1.56-2.935L11 26.762 26.828 11l4.435 4.417c1.577 1.57 3.921 2.035 6.018 1.275a7.991 7.991 0 015.13-.1c-.685.421-1.333.928-1.927 1.518l-9.108 9.073a4.134 4.134 0 000 5.864 4.16 4.16 0 002.943 1.215 4.16 4.16 0 002.945-1.215l5.28-5.258 2.144 2.136.042.042.053.052c.011.01.02.022.034.033l.072.07 15.726 15.66.428.429a3.23 3.23 0 01.957 2.3c0 .831-.319 1.663-.957 2.299a3.272 3.272 0 01-4.62 0z"/><path fill="#7ED321" d="M26.614 10.755L10.843 26.526 9.369 28 1 19.631 19.63 1 28 9.37z"/><path fill="#014463" d="M86.593 17.68L69.72.935a1.397 1.397 0 00-1.966 0l-8.436 8.372a1.373 1.373 0 000 1.95l.841.836-1.934 1.918c-1.255 1.246-3.203 1.586-4.847.845a12.152 12.152 0 00-4.955-1.06c-2.02 0-3.993.502-5.746 1.455a9.422 9.422 0 00-5.439.288c-1.64.591-3.397.225-4.588-.956l-3.473-3.447.414-.41a1.373 1.373 0 000-1.95L21.154.404a1.397 1.397 0 00-1.965 0L.407 19.042a1.371 1.371 0 000 1.95l8.436 8.372a1.395 1.395 0 001.966 0l.503-.5 2.45 2.431a4.206 4.206 0 011.184 2.214 21.6 21.6 0 006.044 11.387l.461.457a4.906 4.906 0 00-1.373 3.414c0 1.326.52 2.572 1.465 3.51a5.005 5.005 0 003.786 1.444 4.93 4.93 0 001.456 3.757 4.987 4.987 0 003.536 1.454l.111-.003a4.928 4.928 0 001.46 3.617A4.988 4.988 0 0035.428 64a4.989 4.989 0 003.764-1.697 4.71 4.71 0 001.538.261 4.65 4.65 0 003.304-1.36 4.615 4.615 0 001.055-1.606l.143.141a4.675 4.675 0 003.302 1.356 4.675 4.675 0 003.303-1.356 4.612 4.612 0 001.078-1.666c.815.589 1.78.883 2.746.883a4.68 4.68 0 003.304-1.355 4.589 4.589 0 001.368-3.279c0-.374-.045-.741-.132-1.096a4.645 4.645 0 002.364-1.265 4.587 4.587 0 001.368-3.277 4.58 4.58 0 00-.862-2.683l1.115-1.106a21.591 21.591 0 006.07-11.529 3.72 3.72 0 011.06-1.974l4.147-4.114.728.723c.272.27.627.404.983.404.355 0 .711-.134.983-.404l8.436-8.372a1.373 1.373 0 000-1.95zM3.355 20.017L20.17 3.33l6.472 6.422L9.826 26.44l-6.471-6.422zm20.152 30.31c-.42-.417-.65-.97-.65-1.56 0-.588.23-1.142.65-1.559a2.223 2.223 0 011.572-.644c.568 0 1.138.215 1.57.644.867.86.867 2.259 0 3.119-.865.86-2.275.86-3.142 0zm6.813 5.847c-.593 0-1.15-.23-1.57-.646a2.195 2.195 0 010-3.118 2.223 2.223 0 011.57-.645c.57 0 1.139.215 1.572.645.866.86.866 2.259 0 3.118-.42.417-.978.646-1.572.646zM37 60.597c-.42.416-.977.645-1.57.645-.594 0-1.152-.23-1.572-.645a2.195 2.195 0 010-3.119 2.223 2.223 0 011.571-.645c.569 0 1.138.215 1.571.645.866.86.866 2.259 0 3.119zm23.6-10.585c-.357.355-.832.55-1.337.55s-.98-.195-1.338-.55l-13.48-13.374a1.397 1.397 0 00-1.965 0 1.372 1.372 0 000 1.95L57 52.995c.358.354.554.826.554 1.327 0 .503-.196.975-.553 1.329a1.906 1.906 0 01-2.677 0l-2.45-2.43-.04-.043-.014-.011-11.26-11.174a1.397 1.397 0 00-1.965 0 1.371 1.371 0 000 1.95l11.296 11.21c.346.35.536.815.536 1.308 0 .502-.197.973-.554 1.328a1.904 1.904 0 01-2.675 0l-12.25-12.155a1.397 1.397 0 00-1.964 0 1.371 1.371 0 000 1.95l9.08 9.01.006.007c.357.354.554.825.554 1.326 0 .5-.197.972-.556 1.328a1.883 1.883 0 01-1.695.516 4.935 4.935 0 00-1.408-4.243 4.988 4.988 0 00-3.536-1.454l-.111.003a4.927 4.927 0 00-1.46-3.618 4.989 4.989 0 00-3.786-1.447 4.93 4.93 0 00-1.456-3.755 5.027 5.027 0 00-4.664-1.323l-.996-.989a18.858 18.858 0 01-5.277-9.941 6.947 6.947 0 00-1.952-3.66l-2.449-2.43 13.935-13.828 3.473 3.446c1.335 1.324 3.152 2.033 5.014 2.033.834 0 1.677-.142 2.489-.435a6.577 6.577 0 011.214-.309l-8.604 8.538a5.472 5.472 0 00-1.632 3.91c0 1.478.58 2.866 1.632 3.91a5.576 5.576 0 003.94 1.618 5.58 5.58 0 003.941-1.617L43 29.892l1.17 1.161.05.05.046.045v.001h.002l.04.04L60.6 47.355c.357.354.553.825.553 1.327 0 .503-.196.974-.554 1.329zm8.752-20.57a6.451 6.451 0 00-1.83 3.437 18.853 18.853 0 01-5.3 10.066l-1.069 1.06-8.79-8.723a7.138 7.138 0 003.284-.5 1.375 1.375 0 00.76-1.798 1.393 1.393 0 00-1.813-.754c-3.576 1.452-7.863-2.55-8.34-3.01l-.025-.023-.049-.05-.043-.042h-.001l-1.17-1.162 1.326-1.317a1.371 1.371 0 000-1.95 1.397 1.397 0 00-1.964 0l-2.306 2.288-.003.003-.003.003-5.301 5.26a2.812 2.812 0 01-3.951 0 2.744 2.744 0 01-.818-1.96c0-.74.29-1.437.818-1.96l9.15-9.081a9.222 9.222 0 016.509-2.676 9.34 9.34 0 013.808.814c2.691 1.212 5.89.648 7.96-1.406l1.935-1.919 11.372 11.286-4.146 4.114zm7.822-4.365L62.265 10.283l6.472-6.422 14.908 14.794-6.472 6.422z"/><circle cx="78.5" cy="19.5" r="1.5" fill="#000"/><circle cx="9.5" cy="21.5" r="1.5" fill="#000"/></g></svg>