<svg width="27" height="25" fill="none" xmlns="http://www.w3.org/2000/svg"><path d="M24.5 8.5V19c0 .01.041.137.123.383.082.237.182.542.3.916.128.364.265.765.411 1.203.146.438.282.852.41 1.244.128.383.237.716.328.998.1.274.16.442.178.506H0c.018-.064.073-.232.164-.506.1-.282.214-.615.342-.998.127-.392.264-.806.41-1.244.146-.438.278-.839.396-1.203l.315-.916c.082-.246.123-.374.123-.383V8.5H0V6.75L13.125.187 26.25 6.75V8.5H24.5zM3.91 6.75h18.43l-9.215-4.607L3.91 6.75zM21 8.5V19h1.75V8.5H21zm-3.5 0V19h1.75V8.5H17.5zm-3.5 0V19h1.75V8.5H14zm-3.5 0V19h1.75V8.5H10.5zM7 8.5V19h1.75V8.5H7zM3.5 19h1.75V8.5H3.5V19zm20.316 3.5l-.574-1.75H3.008l-.574 1.75h21.382z" fill="#484848"/></svg>