<svg xmlns="http://www.w3.org/2000/svg" width="103" height="87"><g fill="none"><path fill="#694B4B" d="M32.819 1S14 1.15 14 19.471v7.165s22.007-4.382 24.955-10.399c0 0 .288 7.657 12.773 9.89 0 0 4.027-25.127-18.91-25.127z"/><path fill="#563B3B" d="M18.075 19.013C18.075 4.331 30.553 1.616 35 1.114A28.086 28.086 0 0032.478 1S14 1.147 14 19.013V26s1.64-.325 4.075-.917v-6.07z"/><path d="M10.844 61.04a.898.898 0 01-.066.025c-.354.12-8.677 3.046-8.677 13.29V84.53h8.982V73.85a.95.95 0 01.959-.938.95.95 0 01.959.939v11.993h13.367l-8.331-27.737-7.193 2.934zM55.5 62.218c-1.292-.82-2.276-1.152-2.283-1.154a1.089 1.089 0 01-.062-.023L46.3 58.245 38.776 84.53h12.222V73.85a.95.95 0 01.96-.938.95.95 0 01.959.939v10.68h8.982V74.355c0-6.673-3.48-10.284-6.4-12.138z" fill="#324A5E"/><path fill="#FBCB99" d="M38.772 18.644L38.493 18l-.49.505c-5.867 6.048-14.936 7.222-18.563 7.446l-.44.027v10.066C19 42.636 24.423 48 31.088 48h2.825C40.578 48 46 42.636 46 36.044V25.786l-.315-.108c-3.757-1.29-5.833-4.537-6.913-7.034zM30.78 31.406c0-.511.42-.927.937-.927.517 0 .938.416.938.927V35h1.458c.517 0 .938.416.938.928 0 .511-.42.927-.938.927h-2.396a.934.934 0 01-.937-.927v-4.52z"/><path d="M20.383 35.98V25.975l.452-.027c3.51-.21 11.974-1.256 17.988-6.386a17.082 17.082 0 01-.422-.875l-.286-.64-.505.502c-6.033 6.01-15.36 7.176-19.089 7.399l-.452.027v10.003c0 6.552 5.576 11.881 12.43 11.881h2.314c-6.854 0-12.43-5.33-12.43-11.88zm27.951-8.607l-.571-.103v8.402l.57-.103c2.062-.37 3.559-2.094 3.559-4.098s-1.497-3.728-3.558-4.098z" fill="#EDBA89"/><path fill="#FBCB99" d="M39 50l-.637.166a15.058 15.058 0 01-3.803.488h-3.064c-1.287 0-2.567-.164-3.804-.488L27.055 50v5.73c0 .047-.004.098-.014.161l-.041.262L32.968 62 39 55.703V50z"/><path d="M29.44 56.47l.038-.244a.959.959 0 00.013-.151v-4.862a14.087 14.087 0 01-1.688-.33l-.596-.155v5.347a.965.965 0 01-.014.15l-.038.245 5.588 5.456 1.106-1.15-4.41-4.306zM17.189 36.807v-8.7l-.563.107a4.318 4.318 0 00-3.513 4.244 4.318 4.318 0 003.513 4.243l.563.106z" fill="#EDBA89"/><path d="M39.284 69.485a1.42 1.42 0 01-.838-.273l-1.592-1.163-1.005 2.657 1.339 8.233 2.709-9.594a1.393 1.393 0 01-.613.14zm.193-14.203c0 .06-.005.117-.012.175a1.39 1.39 0 01-.383 1.15l-5.448 5.61 5.121 3.74 4.146-8.454-3.424-2.241v.02zM27.324 70.734l-1.152-2.727-1.65 1.205a1.42 1.42 0 01-1.175.232l-.017-.005 2.668 9.447 1.326-8.152zm-7.256-13.231l4.146 8.454 5.16-3.768-5.248-5.072a1.393 1.393 0 01-.363-1.417 1.39 1.39 0 01-.064-.418v-.156l-3.63 2.377z" fill="#EFF2F9"/><path d="M33.149 72.145h-3.292l-1.83 12.724h6.951zm.16-2.265l1.088-3.251-2.987-2.466-2.962 2.446 1.221 3.27z" fill="#EF4C35"/><path d="M12.875 61.106a.924.924 0 00.065-.025l5.038-2.12-.236-.852-7.06 2.972a.864.864 0 01-.066.025c-.347.12-8.517 3.087-8.517 13.47v10.31h2.26v-10.31c0-10.383 8.168-13.349 8.516-13.47zm1.24 12.006a.947.947 0 00-.94.951v10.823h1.882V74.063a.947.947 0 00-.942-.95z" fill="#283D4C"/><path d="M30.034 72.145L28.03 84.869h2.212l2.004-12.724zm2.807-7.148l-1.106-.834-3.244 2.446 1.337 3.27h2.212l-1.338-3.27z" fill="#DF3126"/><g fill="#202121"><path d="M56.463 60.39h-.001c-1.365-.88-2.463-1.296-2.723-1.389l-7.92-3.277-5.583-3.66a1.386 1.386 0 00-.166-.091v-2.37c4.216-2.09 7.27-6.155 7.93-10.967 3.399-.273 6.081-3.105 6.081-6.55 0-1.704-.657-3.26-1.732-4.428v-8.413C52.35 8.633 43.655 0 32.97 0h-1.5C20.783 0 12.09 8.633 12.09 19.245v8.318a6.526 6.526 0 00-1.822 4.523c0 3.445 2.682 6.277 6.082 6.55.659 4.812 3.713 8.876 7.93 10.966v2.217l-5.82 3.814c-.08.017-.158.04-.235.072L10.261 59c-.398.142-2.738 1.035-5.062 3.214C2.9 64.37.158 68.25.158 74.49v11.127c0 .763.622 1.381 1.391 1.381h16.432c.768 0 1.391-.618 1.391-1.38 0-.764-.623-1.382-1.391-1.382h-4.285V73.985c0-.763-.623-1.382-1.391-1.382-.769 0-1.391.619-1.391 1.382v10.252H2.94V74.49c0-9.951 7.93-12.778 8.263-12.891a1.36 1.36 0 00.092-.035l6.633-2.745 7.17 25.417h-2.764c-.768 0-1.39.618-1.39 1.38 0 .764.622 1.382 1.39 1.382H62.45c.769 0 1.392-.621 1.392-1.384V74.49c0-8.13-4.623-12.323-7.379-14.1zm-29.716 7.698l1.173 2.781-1.354 8.33-2.728-9.67.065.02a1.406 1.406 0 001.158-.229l1.686-1.232zm3.535 1.23l-1.23-2.915 3.018-2.205 3.051 2.23-1.093 2.89h-3.746zm6.142 1.524l1.026-2.713 1.63 1.191a1.397 1.397 0 001.484.102l-2.773 9.83-1.367-8.41zm7.149-13.28l-4.19 8.55-5.197-3.798 5.494-5.663a1.37 1.37 0 00.377-1.137 1.38 1.38 0 00.012-.176v-.072l3.504 2.295zm4.563-21.727v-7.498c1.795.318 3.163 1.876 3.163 3.75 0 1.871-1.368 3.43-3.163 3.748zM31.468 2.763h1.5c9.154 0 16.6 7.393 16.6 16.482v6.61a6.602 6.602 0 00-1.432-.31l-.001-.017c-.001-.03-.002-.06-.005-.09l-.007-.055c-.004-.026-.007-.053-.012-.079a1.19 1.19 0 00-.031-.128 1.331 1.331 0 00-.025-.073l-.019-.052a1.395 1.395 0 00-.096-.19l-.027-.046a1.314 1.314 0 00-.044-.062c-.012-.016-.023-.032-.036-.047a1.652 1.652 0 00-.09-.102l-.044-.043a1.316 1.316 0 00-.054-.049l-.047-.037a1.243 1.243 0 00-.06-.044c-.016-.012-.034-.022-.052-.033a1.547 1.547 0 00-.06-.037c-.021-.012-.042-.022-.063-.032l-.057-.027a1.313 1.313 0 00-.077-.03l-.05-.019a1.359 1.359 0 00-.088-.024c-.012-.003-.024-.008-.037-.01-5.444-1.23-7.086-8.039-7.102-8.105a1.395 1.395 0 00-2.484-.504c-6.187 8.493-19.638 8.574-19.857 8.574h-.008c-.048 0-.095.003-.142.007l-.043.007c-.032.004-.064.008-.095.015l-.059.014c-.025.007-.05.012-.074.02-.023.006-.044.015-.066.023-.02.008-.042.014-.061.023-.026.01-.05.023-.075.035l-.047.022-.073.044-.042.025c-.022.015-.043.032-.065.049l-.042.03-.056.051c-.014.013-.029.025-.042.039-.018.017-.034.036-.05.054-.013.015-.028.028-.04.044-.015.017-.028.036-.042.055l-.038.05c-.013.019-.023.038-.034.056-.012.02-.025.038-.036.058-.01.018-.018.038-.027.056l-.032.065c-.008.018-.013.037-.02.055a1.03 1.03 0 00-.027.071l-.015.058-.02.075-.009.06c-.004.026-.009.05-.011.076-.003.022-.003.043-.004.065l-.003.06a6.606 6.606 0 00-1.342.278v-6.579c0-9.089 7.445-16.482 16.597-16.482zm-18.42 29.323c0-1.873 1.369-3.431 3.164-3.75v7.498c-1.795-.318-3.163-1.876-3.163-3.748zm5.946 4.596v-9.785c3.556-.217 13.004-1.389 19.084-7.71 1.048 2.45 3.22 6.027 7.276 7.416v10.079c0 6.436-5.273 11.671-11.753 11.671h-2.852c-6.482 0-11.755-5.235-11.755-11.67zm11.755 14.434H33.6c1.274 0 2.51-.165 3.688-.472v4.491l-5.179 5.338-5.07-4.903c.013-.075.022-.153.022-.232v-4.694c1.178.307 2.414.472 3.688.472zm-6.47 4.013v.21c0 .146.023.286.066.419a1.374 1.374 0 00.354 1.405l5.296 5.122-5.238 3.828-4.19-8.551 3.712-2.433zm4.287 29.108l1.975-12.156h3.266l1.975 12.156h-7.216zm32.493 0h-7.974V73.985c0-.763-.622-1.381-1.39-1.381-.77 0-1.392.618-1.392 1.38v10.253h-11.03l7.131-25.279 6.3 2.607c.027.012.06.024.088.033.009.004.939.326 2.156 1.11 2.788 1.797 6.111 5.3 6.111 11.783v9.746z"/><path d="M33.801 37.944c.769 0 1.391-.618 1.391-1.381s-.622-1.382-1.39-1.382h-1.027v-3.198c0-.763-.623-1.381-1.392-1.381-.768 0-1.39.618-1.39 1.381v4.58c0 .763.622 1.381 1.39 1.381h2.418z"/></g><path fill="#202121" d="M92.933 62.921h-1.987v-4.106c0-1.534-1.227-2.782-2.734-2.782h-6.458c-1.507 0-2.734 1.248-2.734 2.782v4.106h-1.987v-4.106c0-2.649 2.118-4.804 4.721-4.804h6.458c2.603 0 4.721 2.155 4.721 4.804v4.106z"/><path fill="#202121" d="M98.777 86.954h-26.59C69.88 86.954 68 85.045 68 82.7V64.259c0-2.346 1.879-4.254 4.188-4.254h26.59c2.308 0 4.187 1.908 4.187 4.254v18.44c0 2.346-1.879 4.255-4.188 4.255zm-26.59-24.888c-1.19 0-2.158.983-2.158 2.193v18.44c0 1.21.968 2.194 2.159 2.194h26.59c1.19 0 2.158-.984 2.158-2.193V64.259c0-1.21-.968-2.193-2.159-2.193h-26.59z"/><path fill="#FBCB99" d="M71.854 61.112c-1.818 0-3.167 1.74-2.731 3.541 1.565 6.472 7.317 11.309 14.122 11.309h3.476c6.804 0 12.556-4.837 14.122-11.309.436-1.802-.914-3.54-2.731-3.54H71.854z"/><path fill="#202121" d="M86.72 76.986h-3.475c-3.485 0-6.912-1.225-9.65-3.45a16.05 16.05 0 01-5.446-8.637 3.91 3.91 0 01.698-3.315 3.769 3.769 0 013.007-1.496h26.258c1.182 0 2.277.545 3.007 1.496a3.91 3.91 0 01.698 3.314 16.05 16.05 0 01-5.446 8.638c-2.739 2.225-6.166 3.45-9.65 3.45zm-14.866-14.85a1.79 1.79 0 00-1.428.71 1.842 1.842 0 00-.33 1.561c1.5 6.2 6.907 10.53 13.149 10.53h3.476c6.242 0 11.648-4.33 13.148-10.53a1.841 1.841 0 00-.33-1.56 1.79 1.79 0 00-1.427-.71H71.854z"/><path fill="#FBCB99" d="M78.722 78.966h-1.196a1.39 1.39 0 01-1.396-1.386v-4.157a1.39 1.39 0 011.396-1.385h1.196c.771 0 1.396.62 1.396 1.385v4.157a1.39 1.39 0 01-1.396 1.386z"/><path fill="#202121" d="M78.722 79.988h-1.196A2.42 2.42 0 0175.1 77.58v-4.157a2.42 2.42 0 012.426-2.408h1.196a2.42 2.42 0 012.426 2.408v4.157a2.42 2.42 0 01-2.426 2.408zm-1.196-6.928a.365.365 0 00-.365.363v4.157c0 .2.164.363.365.363h1.196a.365.365 0 00.366-.363v-4.157c0-.2-.164-.363-.366-.363h-1.196z"/><path fill="#FBCB99" d="M93.145 78.966H91.95a1.39 1.39 0 01-1.396-1.386v-4.157a1.39 1.39 0 011.396-1.385h1.196c.771 0 1.396.62 1.396 1.385v4.157a1.39 1.39 0 01-1.396 1.386z"/><path fill="#202121" d="M93.145 79.988H91.95a2.42 2.42 0 01-2.426-2.408v-4.157a2.42 2.42 0 012.426-2.408h1.196a2.42 2.42 0 012.426 2.408v4.157a2.42 2.42 0 01-2.426 2.408zM91.95 73.06a.365.365 0 00-.366.363v4.157c0 .2.164.363.366.363h1.196a.365.365 0 00.366-.363v-4.157c0-.2-.164-.363-.366-.363H91.95z"/></g></svg>