<svg xmlns="http://www.w3.org/2000/svg" width="39" height="48"><g fill="none" fill-rule="evenodd"><g fill-rule="nonzero"><ellipse cx="21" cy="18.5" fill="#FFCA5D" rx="15" ry="15.5"/><path fill="#014463" d="M21.5 35C11.85 35 4 27.15 4 17.5S11.85 0 21.5 0 39 7.85 39 17.5 31.15 35 21.5 35zm0-32.812c-8.444 0-15.312 6.868-15.312 15.312 0 8.444 6.868 15.312 15.312 15.312 8.444 0 15.312-6.868 15.312-15.312 0-8.444-6.868-15.312-15.312-15.312z"/><path fill="#FFCA5D" d="M6 35h30v3H6z"/><path fill="#014463" d="M37.906 39H5.094C4.49 39 4 38.552 4 38v-4c0-.552.49-1 1.094-1h32.812c.604 0 1.094.448 1.094 1v4c0 .552-.49 1-1.094 1zM6.188 37h30.625v-2H6.188v2z"/><path fill="#FFCA5D" d="M3 39h30v3H3z"/><path fill="#014463" d="M33.906 43H1.094C.49 43 0 42.552 0 42v-4c0-.552.49-1 1.094-1h32.812c.604 0 1.094.448 1.094 1v4c0 .552-.49 1-1.094 1zM2.187 41h30.625v-2H2.187v2z"/><path fill="#FFCA5D" d="M5 44h30v3H5z"/><path fill="#014463" d="M37.906 48H5.094C4.49 48 4 47.552 4 47v-4c0-.552.49-1 1.094-1h32.812c.604 0 1.094.448 1.094 1v4c0 .552-.49 1-1.094 1zM6.187 46h30.625v-2H6.187v2z"/><path d="M20.5 44.777h2.194v2.197H20.5zm4.389 0h2.194v2.197h-2.194zm4.388 0h2.194v2.197h-2.194zm4.389 0h2.194v2.197h-2.194zm-17.555 0h2.194v2.197h-2.194zm-4.388 0h2.194v2.197h-2.194zm-4.389 0h2.194v2.197H7.334zm9.875-4.395h2.194v2.197h-2.194zm4.388 0h2.194v2.197h-2.194zm4.389 0h2.194v2.197h-2.194zm4.388 0h2.194v2.197h-2.194zm-17.554 0h2.194v2.197H12.82zm-4.389 0h2.194v2.197H8.431zm-4.388 0h2.194v2.197H4.043zm17.554-4.395h2.194v2.197h-2.194zm4.389 0h2.194v2.197h-2.194zm4.388 0h2.194v2.197h-2.194zm4.389 0h2.194v2.197h-2.194zm-17.554 0h2.194v2.197h-2.194zm-4.389 0h2.194v2.197H12.82zm-4.389 0h2.194v2.197H8.431zM34.618 8.72a15.445 15.445 0 00-4.24-3.618l-9.821 28.522c.7.098 1.41.166 2.137.166 1.18 0 2.325-.146 3.429-.398l8.495-24.673zM12.095 29.522a15.358 15.358 0 004.46 2.981L26.53 3.529a15.344 15.344 0 00-3.837-.503c-.507 0-1.007.027-1.502.076l-9.097 26.42z" fill="#F5B445"/><ellipse cx="21.5" cy="17" fill="#FFE27A" rx="9.5" ry="10"/><path fill="#014463" d="M22 28c-6.616 0-12-5.16-12-11.5S15.384 5 22 5s12 5.16 12 11.5S28.616 28 22 28zm0-20.91c-5.413 0-9.818 4.223-9.818 9.41s4.405 9.41 9.818 9.41c5.413 0 9.818-4.223 9.818-9.41S27.413 7.09 22 7.09z"/><path d="M21.463 26.991c2.18 0 4.187-.73 5.816-1.951l3.632-10.704a9.981 9.981 0 00-3.639-5.347l-6.105 17.987c.1.003.196.015.296.015zm-8.451-4.915a9.905 9.905 0 004.134 3.89l6.35-18.707a9.616 9.616 0 00-5.616.48l-4.868 14.337z" fill="#FFEDA9"/></g><path fill="#014463" d="M24.725 14.316a.19.19 0 00-.148-.066h-1.101a2.674 2.674 0 00-.412-1.045h1.5a.19.19 0 00.148-.065.242.242 0 00.058-.167v-.74a.242.242 0 00-.058-.168.19.19 0 00-.148-.065h-5.358a.19.19 0 00-.148.065.242.242 0 00-.058.167v.966c0 .063.02.117.061.163.04.046.09.069.145.069h.934c.906 0 1.481.273 1.726.82h-2.66c-.06 0-.11.022-.148.066a.241.241 0 00-.058.166v.74c0 .069.02.124.058.168a.19.19 0 00.148.065h2.75c-.094.397-.315.7-.66.907-.346.208-.802.313-1.369.313h-.72a.186.186 0 00-.146.068.238.238 0 00-.061.164v.922c0 .063.02.116.058.16.824.987 1.893 2.368 3.207 4.144a.183.183 0 00.161.087h1.256c.09 0 .153-.043.186-.13a.217.217 0 00-.025-.247c-1.254-1.733-2.239-3.03-2.956-3.891.73-.097 1.322-.363 1.777-.798.455-.436.732-1.002.831-1.699h1.082c.06 0 .11-.021.148-.065a.242.242 0 00.058-.167v-.74a.242.242 0 00-.058-.167z"/></g></svg>