<svg xmlns="http://www.w3.org/2000/svg" xmlns:xlink="http://www.w3.org/1999/xlink" width="60" height="41"><defs><rect id="a" width="52.5" height="33.203" x="3.571" rx=".72"/><rect id="b" width="60" height="4.331" rx="2.165"/></defs><g fill="none" fill-rule="evenodd"><use fill="#EBEBEB" xlink:href="#a"/><rect width="51.42" height="32.123" x="4.111" y=".54" stroke="#014463" stroke-width="1.08" rx=".72"/><rect width="46.429" height="25.263" x="7.143" y="2.857" fill="#FFF" rx=".72"/><path fill="#F26A5F" d="M24.097 19.304L22.143 9.02h18.214v8.706c0 .871-.673 1.578-1.506 1.578H24.097"/><path fill="#FFF" d="M40.427 15.01l-3.53 3.631a.396.396 0 000 .55.37.37 0 00.533 0l3.531-3.632a.397.397 0 000-.549.37.37 0 00-.534 0zm.533-4.407a.372.372 0 00-.534 0L32.61 18.64a.397.397 0 000 .55.373.373 0 00.535 0l7.815-8.037a.398.398 0 000-.55zm-2.143-2.201a.37.37 0 00-.54 0l-9.95 10.232a.4.4 0 000 .555.378.378 0 00.541 0l9.949-10.232a.4.4 0 000-.555zm-8.574-.005a.396.396 0 00-.55 0l-6.364 6.216a.375.375 0 000 .54.392.392 0 00.55 0l6.364-6.218a.373.373 0 000-.538zm3.932.003a.373.373 0 00-.537 0l-9.241 9.503a.4.4 0 000 .552.372.372 0 00.536 0l9.242-9.504a.4.4 0 000-.552zm-8.567-.006a.354.354 0 00-.511 0l-2.49 2.56a.377.377 0 000 .528.355.355 0 00.51 0l2.491-2.56a.381.381 0 000-.528z"/><path fill="#014463" d="M39.163 19.304H23.916l-2.13-11.019H41.07v9.057c0 1.082-.856 1.962-1.908 1.962zm-14.619-.788h14.62c.629 0 1.141-.527 1.141-1.174V9.071H22.718l1.826 9.445z"/><path fill="#FFF" d="M28.929 22.426c0 1.116-.88 2.02-1.965 2.02S25 23.542 25 22.426c0-1.115.879-2.02 1.964-2.02 1.084 0 1.965.905 1.965 2.02z"/><path fill="#014463" d="M26.965 24.813c-1.281 0-2.322-1.07-2.322-2.388 0-1.316 1.041-2.387 2.322-2.387 1.28 0 2.32 1.071 2.32 2.387 0 1.318-1.04 2.388-2.32 2.388z"/><path fill="#FFF" d="M37.857 22.426c0 1.116-.878 2.02-1.964 2.02-1.086 0-1.964-.904-1.964-2.02 0-1.115.878-2.02 1.964-2.02 1.086 0 1.964.905 1.964 2.02z"/><path fill="#014463" d="M35.893 24.813c-1.28 0-2.322-1.07-2.322-2.388 0-1.316 1.041-2.387 2.322-2.387 1.28 0 2.321 1.071 2.321 2.387 0 1.318-1.04 2.388-2.321 2.388z"/><path fill="#014463" d="M33.911 22.61h-4.963a.371.371 0 01-.377-.367c0-.205.17-.368.377-.368h4.961a.37.37 0 01.377.368.37.37 0 01-.375.367zM22.133 9.02a.366.366 0 01-.363-.307l-.255-1.53h-.79a.367.367 0 110-.734h1.413l.357 2.144a.366.366 0 01-.362.427zm3.189 13.59h-1.217a1.938 1.938 0 01-1.454-.667 2.063 2.063 0 01-.498-1.56c.101-1.018.99-1.814 2.027-1.814.216 0 .392.18.392.403a.398.398 0 01-.392.405c-.64 0-1.186.477-1.246 1.087-.034.346.073.68.3.936.224.257.541.403.871.403h1.217c.218 0 .392.179.392.404a.397.397 0 01-.392.403z"/><path fill="#E64C3C" d="M20.714 6.815c0 .61-.48 1.103-1.072 1.103-.591 0-1.07-.493-1.07-1.103 0-.608.479-1.1 1.07-1.1.593 0 1.072.492 1.072 1.1z"/><g transform="translate(0 35.955)"><mask id="c" fill="#fff"><use xlink:href="#b"/></mask><use fill="#014463" xlink:href="#b"/><path fill="#FFF" d="M38.036-.18l4.107 5.594 21.964-.903-1.786-6.316z" mask="url(#c)" opacity=".103"/></g></g></svg>