<svg width="477" height="388" xmlns="http://www.w3.org/2000/svg" xmlns:xlink="http://www.w3.org/1999/xlink"><defs><filter x="-51.5%" y="-49.6%" width="212.2%" height="224.6%" filterUnits="objectBoundingBox" id="a"><feOffset dx="6" dy="15" in="SourceAlpha" result="shadowOffsetOuter1"/><feGaussianBlur stdDeviation="22" in="shadowOffsetOuter1" result="shadowBlurOuter1"/><feComposite in="shadowBlurOuter1" in2="SourceAlpha" operator="out" result="shadowBlurOuter1"/><feColorMatrix values="0 0 0 0 0.336307162 0 0 0 0 0.484818212 0 0 0 0 0.671210672 0 0 0 0.212494339 0" in="shadowBlurOuter1"/></filter><filter x="-51.5%" y="-49.6%" width="212.2%" height="224.6%" filterUnits="objectBoundingBox" id="c"><feOffset dx="6" dy="15" in="SourceAlpha" result="shadowOffsetOuter1"/><feGaussianBlur stdDeviation="22" in="shadowOffsetOuter1" result="shadowBlurOuter1"/><feComposite in="shadowBlurOuter1" in2="SourceAlpha" operator="out" result="shadowBlurOuter1"/><feColorMatrix values="0 0 0 0 0.336307162 0 0 0 0 0.484818212 0 0 0 0 0.671210672 0 0 0 0.212494339 0" in="shadowBlurOuter1"/></filter><filter x="-51.5%" y="-49.6%" width="212.2%" height="224.6%" filterUnits="objectBoundingBox" id="e"><feOffset dx="6" dy="15" in="SourceAlpha" result="shadowOffsetOuter1"/><feGaussianBlur stdDeviation="22" in="shadowOffsetOuter1" result="shadowBlurOuter1"/><feComposite in="shadowBlurOuter1" in2="SourceAlpha" operator="out" result="shadowBlurOuter1"/><feColorMatrix values="0 0 0 0 0.336307162 0 0 0 0 0.484818212 0 0 0 0 0.671210672 0 0 0 0.212494339 0" in="shadowBlurOuter1"/></filter><filter x="-51.5%" y="-49.6%" width="212.2%" height="224.6%" filterUnits="objectBoundingBox" id="g"><feOffset dx="6" dy="15" in="SourceAlpha" result="shadowOffsetOuter1"/><feGaussianBlur stdDeviation="22" in="shadowOffsetOuter1" result="shadowBlurOuter1"/><feComposite in="shadowBlurOuter1" in2="SourceAlpha" operator="out" result="shadowBlurOuter1"/><feColorMatrix values="0 0 0 0 0.336307162 0 0 0 0 0.484818212 0 0 0 0 0.671210672 0 0 0 0.212494339 0" in="shadowBlurOuter1"/></filter><rect id="b" x="0" y="194" width="131" height="118" rx="6"/><rect id="d" x="40" y="55" width="131" height="118" rx="6"/><rect id="f" x="196" y="55" width="131" height="118" rx="6"/><rect id="h" x="155" y="194" width="131" height="118" rx="6"/></defs><g transform="translate(38)" fill="none" fill-rule="evenodd"><circle fill="#F8FBFF" cx="245" cy="194" r="194"/><use fill="#000" filter="url(#a)" xlink:href="#b"/><use fill="#FFF" xlink:href="#b"/><rect stroke-opacity=".12" stroke="#CCC" x=".5" y="194.5" width="130" height="117" rx="6"/><path d="M44.454 284.168c2.52 0 3.612-1.33 3.612-2.884 0-3.486-5.432-2.408-5.432-4.144 0-.7.616-1.162 1.582-1.162.98 0 1.974.336 2.702 1.064l.938-1.218c-.868-.84-2.044-1.302-3.5-1.302-2.044 0-3.402 1.19-3.402 2.73 0 3.444 5.446 2.226 5.446 4.186 0 .616-.532 1.274-1.876 1.274a4.028 4.028 0 01-2.954-1.288l-.91 1.26c.826.882 2.072 1.484 3.794 1.484zm6.902 0c.686 0 1.12-.182 1.386-.434l-.35-1.106c-.112.126-.378.238-.658.238-.42 0-.644-.336-.644-.798v-3.542h1.372v-1.288H51.09v-1.848h-1.47v1.848H48.5v1.288h1.12v3.906c0 1.12.602 1.736 1.736 1.736zm3.906-.168v-4.606c.294-.476 1.12-.896 1.736-.896.182 0 .336.014.462.042v-1.456c-.882 0-1.694.504-2.198 1.148v-.994h-1.47V284h1.47zm6.44.168c-2.142 0-3.472-1.61-3.472-3.556 0-1.932 1.33-3.542 3.472-3.542 2.17 0 3.486 1.61 3.486 3.542 0 1.946-1.316 3.556-3.486 3.556zm0-1.302c1.26 0 1.96-1.05 1.96-2.254 0-1.19-.7-2.24-1.96-2.24-1.246 0-1.946 1.05-1.946 2.24 0 1.204.7 2.254 1.946 2.254zm6.44 1.134v-9.338h-1.47V284h1.47zm3.374 0v-9.338h-1.47V284h1.47zm5.026.168c-2.03 0-3.542-1.414-3.542-3.556 0-1.96 1.428-3.542 3.43-3.542 2.03 0 3.332 1.554 3.332 3.682v.35H74.54c.112 1.022.882 1.862 2.156 1.862.658 0 1.442-.266 1.918-.742l.672.966c-.672.644-1.666.98-2.744.98zm1.792-4.102c-.028-.798-.574-1.792-1.904-1.792-1.26 0-1.834.966-1.904 1.792h3.808zM82.688 284v-4.606c.294-.476 1.12-.896 1.736-.896.182 0 .336.014.462.042v-1.456c-.882 0-1.694.504-2.198 1.148v-.994h-1.47V284h1.47zm5.698.168c1.82 0 2.814-.91 2.814-2.1 0-2.688-4.088-1.792-4.088-2.996 0-.476.49-.826 1.26-.826.84 0 1.596.35 2.002.812l.616-1.036c-.616-.546-1.484-.952-2.632-.952-1.708 0-2.66.952-2.66 2.058 0 2.59 4.088 1.638 4.088 2.968 0 .532-.448.91-1.33.91-.882 0-1.82-.462-2.296-.952l-.672 1.064c.7.686 1.75 1.05 2.898 1.05z" fill="#2D303F"/><g fill-rule="nonzero"><path d="M69 226h16c0-5.929-3.836-10.964-9.035-12.51a11.773 11.773 0 00-3.363-.49H69v13z" fill="#F9EACD"/><path d="M85 225H53c0 7.15 5.58 13 12.398 13h7.204C79.421 238 85 232.15 85 225z" fill="#FAB639"/><g fill="#7BA9D6"><path d="M62.18 246.268A3.441 3.441 0 0059.51 245a3.464 3.464 0 00-3.456 3.473 3.465 3.465 0 003.456 3.473 3.464 3.464 0 003.456-3.473c0-.838-.295-1.606-.786-2.205zM75.847 246.268a3.468 3.468 0 00-.786 2.205 3.465 3.465 0 003.456 3.473 3.464 3.464 0 003.456-3.473A3.464 3.464 0 0078.517 245a3.441 3.441 0 00-2.67 1.268z"/></g><path d="M78.313 244.458a4.25 4.25 0 00-2.69.956l-5.361-4.406 2.619-2.152c3.457-.079 6.705-1.471 9.175-3.94 2.543-2.544 3.944-5.913 3.944-9.486 0-3.573-1.4-6.942-3.944-9.486-2.544-2.543-5.912-3.944-9.486-3.944h-3.653a.854.854 0 00-.855.854v11.722H53.456a4.278 4.278 0 00-4.185-3.417h-3.417a.854.854 0 000 1.708h3.417a2.565 2.565 0 012.562 2.563c0 3.573 1.401 6.942 3.945 9.486 2.47 2.47 5.717 3.861 9.174 3.94l2.62 2.152-5.362 4.406a4.25 4.25 0 00-2.69-.956 4.276 4.276 0 00-4.27 4.271 4.276 4.276 0 004.27 4.27 4.276 4.276 0 004.272-4.27c0-.72-.18-1.4-.497-1.996l5.622-4.62 5.621 4.62a4.244 4.244 0 00-.496 1.996 4.276 4.276 0 004.27 4.27 4.276 4.276 0 004.271-4.27 4.276 4.276 0 00-4.27-4.271zm-18.792 6.833a2.565 2.565 0 01-2.563-2.562 2.565 2.565 0 012.563-2.563 2.565 2.565 0 012.562 2.563 2.565 2.565 0 01-2.562 2.562zm13.05-37.582c.713 0 1.411.064 2.09.187l-2.067 3.54a.854.854 0 001.475.862l2.309-3.954c4.342 1.495 7.538 5.474 7.882 10.232H72.268l5.355-2.92a.854.854 0 10-.817-1.5l-7.035 3.835V213.71h2.8zm-18.998 12.575H84.26c-.439 6.065-5.513 10.866-11.687 10.867h-7.31c-6.176 0-11.252-4.8-11.69-10.867zm14.075 12.576h2.537l-1.268 1.042-1.27-1.042zm10.665 12.431a2.565 2.565 0 01-2.563-2.562 2.565 2.565 0 012.563-2.563 2.565 2.565 0 012.562 2.563 2.565 2.565 0 01-2.562 2.562z" fill="#314E55"/><path d="M79.391 220.574a.85.85 0 00.41-.105l.053-.029a.854.854 0 10-.821-1.498l-.053.029a.854.854 0 00.411 1.603zM62.421 227.992h-3.176a.854.854 0 000 1.709h3.176a.854.854 0 000-1.709zM56.791 227.993h-.02a.854.854 0 000 1.708h.02a.854.854 0 000-1.708zM59.52 247.875a.856.856 0 00-.853.854c0 .47.384.854.854.854s.854-.383.854-.854a.855.855 0 00-.854-.854zM78.313 247.875a.855.855 0 00-.854.854c0 .47.383.854.854.854.47 0 .854-.383.854-.854a.855.855 0 00-.854-.854z" fill="#000003"/></g><use fill="#000" filter="url(#c)" xlink:href="#d"/><use fill="#FFF" xlink:href="#d"/><rect stroke-opacity=".12" stroke="#CCC" x="40.5" y="55.5" width="130" height="117" rx="6"/><path d="M87.156 135.182c1.624 0 2.926-.672 3.85-1.694v-3.5h-4.424v1.442h2.786v1.456c-.42.392-1.26.84-2.212.84-1.848 0-3.22-1.428-3.22-3.388s1.372-3.374 3.22-3.374c1.05 0 1.932.546 2.422 1.246l1.344-.756c-.756-1.078-1.946-1.946-3.766-1.946-2.702 0-4.9 1.904-4.9 4.83s2.198 4.844 4.9 4.844zM98.272 135h-1.47v-.728c-.504.574-1.288.896-2.184.896-1.106 0-2.352-.742-2.352-2.24 0-1.554 1.246-2.198 2.352-2.198.91 0 1.694.294 2.184.868v-1.008c0-.784-.644-1.26-1.582-1.26-.756 0-1.414.28-2.002.854l-.602-1.022c.784-.742 1.764-1.092 2.842-1.092 1.498 0 2.814.63 2.814 2.45V135zm-3.08-.84c.644 0 1.274-.238 1.61-.7v-1.022c-.336-.462-.966-.7-1.61-.7-.826 0-1.442.476-1.442 1.218 0 .728.616 1.204 1.442 1.204zm14.742.84v-4.886c0-1.372-.7-2.044-1.946-2.044-1.008 0-1.904.63-2.296 1.246-.224-.742-.84-1.246-1.848-1.246-1.022 0-1.918.672-2.198 1.092v-.924h-1.47V135h1.47v-4.718c.308-.448.91-.91 1.554-.91.798 0 1.12.49 1.12 1.218V135h1.47v-4.732c.294-.434.91-.896 1.568-.896.784 0 1.106.49 1.106 1.218V135h1.47zm2.632-7.588c.504 0 .91-.406.91-.91a.908.908 0 00-.91-.91c-.49 0-.91.406-.91.91s.42.91.91.91zm.742 7.588v-6.762h-1.47V135h1.47zm7.938 0v-4.76c0-1.386-.728-2.17-2.184-2.17a3.2 3.2 0 00-2.38 1.092v-.924h-1.47V135h1.47v-4.718c.336-.462.98-.91 1.736-.91.826 0 1.358.35 1.358 1.4V135h1.47zm4.648 2.744c-1.148 0-2.002-.252-2.828-1.008l.686-1.064c.546.63 1.246.868 2.142.868.966 0 2.002-.448 2.002-1.834v-.812c-.518.672-1.288 1.12-2.17 1.12-1.722 0-2.996-1.246-2.996-3.472 0-2.184 1.26-3.472 2.996-3.472.854 0 1.624.392 2.17 1.106v-.938h1.47v6.412c0 2.436-1.806 3.094-3.472 3.094zm.266-4.032c.686 0 1.414-.406 1.736-.91v-2.52c-.322-.504-1.05-.91-1.736-.91-1.162 0-1.904.868-1.904 2.17s.742 2.17 1.904 2.17zm-43.645 18.456c1.89 0 3.038-.98 3.752-2.1l-1.4-.714a2.742 2.742 0 01-2.352 1.358c-1.848 0-3.22-1.414-3.22-3.374 0-1.96 1.372-3.374 3.22-3.374 1.008 0 1.904.588 2.352 1.358l1.4-.714c-.7-1.12-1.862-2.1-3.752-2.1-2.758 0-4.9 1.96-4.9 4.83s2.142 4.83 4.9 4.83zm8.078 0c-2.142 0-3.472-1.61-3.472-3.556 0-1.932 1.33-3.542 3.472-3.542 2.17 0 3.486 1.61 3.486 3.542 0 1.946-1.316 3.556-3.486 3.556zm0-1.302c1.26 0 1.96-1.05 1.96-2.254 0-1.19-.7-2.24-1.96-2.24-1.246 0-1.946 1.05-1.946 2.24 0 1.204.7 2.254 1.946 2.254zM101.597 152v-4.76c0-1.386-.728-2.17-2.184-2.17a3.2 3.2 0 00-2.38 1.092v-.924h-1.47V152h1.47v-4.718c.336-.462.98-.91 1.736-.91.826 0 1.358.35 1.358 1.4V152h1.47zm4.214.168c1.82 0 2.814-.91 2.814-2.1 0-2.688-4.088-1.792-4.088-2.996 0-.476.49-.826 1.26-.826.84 0 1.596.35 2.002.812l.616-1.036c-.616-.546-1.484-.952-2.632-.952-1.708 0-2.66.952-2.66 2.058 0 2.59 4.088 1.638 4.088 2.968 0 .532-.448.91-1.33.91-.882 0-1.82-.462-2.296-.952l-.672 1.064c.7.686 1.75 1.05 2.898 1.05zm7.35 0c-2.142 0-3.472-1.61-3.472-3.556 0-1.932 1.33-3.542 3.472-3.542 2.17 0 3.486 1.61 3.486 3.542 0 1.946-1.316 3.556-3.486 3.556zm0-1.302c1.26 0 1.96-1.05 1.96-2.254 0-1.19-.7-2.24-1.96-2.24-1.246 0-1.946 1.05-1.946 2.24 0 1.204.7 2.254 1.946 2.254zm6.44 1.134v-9.338h-1.47V152h1.47zm5.026.168c-2.03 0-3.542-1.414-3.542-3.556 0-1.96 1.428-3.542 3.43-3.542 2.03 0 3.332 1.554 3.332 3.682v.35h-5.222c.112 1.022.882 1.862 2.156 1.862.658 0 1.442-.266 1.918-.742l.672.966c-.672.644-1.666.98-2.744.98zm1.792-4.102c-.028-.798-.574-1.792-1.904-1.792-1.26 0-1.834.966-1.904 1.792h3.808zm5.194 4.102c1.82 0 2.814-.91 2.814-2.1 0-2.688-4.088-1.792-4.088-2.996 0-.476.49-.826 1.26-.826.84 0 1.596.35 2.002.812l.616-1.036c-.616-.546-1.484-.952-2.632-.952-1.708 0-2.66.952-2.66 2.058 0 2.59 4.088 1.638 4.088 2.968 0 .532-.448.91-1.33.91-.882 0-1.82-.462-2.296-.952l-.672 1.064c.7.686 1.75 1.05 2.898 1.05z" fill="#2D303F"/><g fill-rule="nonzero"><g transform="translate(89 77)"><path fill="#FFF" d="M3.216 10.365h1.568v1.588H3.216z"/><path d="M21.249 7.983c0 2.085.803 3.98 2.105 5.398.364.236.677.535.946.876a7.729 7.729 0 004.789 1.668c4.323 0 7.84-3.563 7.84-7.942S33.412.04 29.09.04s-7.84 3.563-7.84 7.942zm7.84 6.353c-1.297 0-2.352-1.068-2.352-2.382s1.055-2.383 2.352-2.383 2.352 1.069 2.352 2.383-1.055 2.382-2.352 2.382zM33.793 5.6c1.297 0 2.352 1.07 2.352 2.383 0 1.314-1.055 2.382-2.352 2.382s-2.352-1.068-2.352-2.382S32.496 5.6 33.793 5.6zM29.09 1.63c1.297 0 2.352 1.068 2.352 2.382s-1.055 2.383-2.352 2.383-2.352-1.069-2.352-2.383 1.055-2.382 2.352-2.382zm-2.352 6.353c0 1.314-1.055 2.382-2.352 2.382s-2.352-1.068-2.352-2.382S23.088 5.6 24.385 5.6s2.352 1.07 2.352 2.383z" fill="#D0DFEE"/><path fill="#FFF" d="M3.216 7.189h1.568v1.588H3.216zM6.352 7.189H7.92v1.588H6.352zM3.216 4.012h1.568V5.6H3.216z"/><circle fill="#FFF" cx="24.385" cy="7.983" r="1"/><circle fill="#FFF" cx="29.089" cy="11.954" r="1"/><circle fill="#FFF" cx="29.089" cy="4.012" r="1"/><circle fill="#FFF" cx="33.793" cy="7.983" r="1"/><path fill="#FFF" d="M.08 7.189h1.568v1.588H.08z"/></g><path d="M110.672 91.904a8.052 8.052 0 01-.722-.654A1.977 1.977 0 00109 91 2.003 2.003 0 00107 93c0 1.103.898 2 2.001 2A2.001 2.001 0 00111 93.028l-.2-.89a1.989 1.989 0 00-.128-.234z" fill="#FAB639"/><path d="M119.096 92.726c-1.462 0-2.847-.307-4.096-.842l2.403 9.971c.41 1.705 2.338 3.145 4.21 3.145h.82c1.843 0 3.45-1.397 3.581-3.115L127 89c-1.799 2.256-4.667 3.726-7.904 3.726z" fill="#D0DFEE"/><path d="M100.992 91c-.346 0-.667.096-.951.25-.228.232-.47.45-.725.654-.022.034-.038.071-.058.106L99 93.153A2 2 0 00100.992 95 2.006 2.006 0 00103 93c0-1.103-.9-2-2.008-2z" fill="#FAB639"/><g fill="#D0DFEE"><path d="M109.163 84.914c0-2.058.655-3.958 1.754-5.511h-9.678a9.516 9.516 0 011.753 5.511 9.524 9.524 0 01-1.269 4.752c1.738.127 3.165 1.417 3.505 3.121h1.7c.34-1.704 1.767-2.994 3.504-3.12a9.524 9.524 0 01-1.269-4.753zm-1.542-1.575h-3.086v-1.574h3.086v1.574zM97.602 93.487a9.03 9.03 0 01-3.866.875c-3.007 0-5.676-1.478-7.368-3.753l.92 13.153c.123 1.763 1.632 3.197 3.363 3.197h.77c1.757 0 3.567-1.478 3.952-3.228L97.6 93.635c0-.02-.006-.04-.006-.06 0-.03.008-.058.009-.088z"/><path d="M93.736 92.787a7.568 7.568 0 004.712-1.653c.264-.338.572-.635.93-.869a7.923 7.923 0 002.072-5.35c0-4.342-3.46-7.874-7.714-7.874-4.253 0-7.714 3.532-7.714 7.873s3.46 7.873 7.714 7.873zm-5.4-9.448a.78.78 0 01.772-.787h2.314V80.19a.78.78 0 01.771-.787h3.086a.78.78 0 01.771.787v2.362h2.314a.78.78 0 01.772.787v3.15a.78.78 0 01-.772.787H96.05v2.362a.78.78 0 01-.771.787h-3.086a.78.78 0 01-.771-.787v-2.362h-2.314a.78.78 0 01-.772-.787v-3.15z"/></g><g fill="#314E55"><path d="M118.534 82.867a2.357 2.357 0 002.354-2.355 2.357 2.357 0 00-2.354-2.355 2.357 2.357 0 00-2.355 2.355 2.357 2.357 0 002.355 2.355zm0-3.14a.786.786 0 11-.002 1.571.786.786 0 01.002-1.57zM118.534 86.006a2.357 2.357 0 00-2.355 2.355 2.357 2.357 0 002.355 2.354 2.357 2.357 0 002.354-2.354 2.357 2.357 0 00-2.354-2.355zm0 3.14a.786.786 0 11.001-1.572.786.786 0 01-.001 1.571zM111.47 84.436a2.357 2.357 0 002.355 2.355 2.357 2.357 0 002.354-2.355 2.357 2.357 0 00-2.354-2.354 2.357 2.357 0 00-2.355 2.354zm2.355-.785a.786.786 0 11-.002 1.572.786.786 0 01.002-1.572zM123.243 86.79a2.357 2.357 0 002.354-2.354 2.357 2.357 0 00-2.354-2.354 2.357 2.357 0 00-2.355 2.354 2.357 2.357 0 002.355 2.355zm0-3.139a.786.786 0 11-.002 1.572.786.786 0 01.002-1.572z"/><path d="M127.928 84.915c.008-.16.024-.317.024-.479 0-5.193-4.225-9.418-9.418-9.418a9.37 9.37 0 00-6.217 2.362c-.013 0-.024-.007-.038-.007H99.697c-.02 0-.037.01-.057.011a9.37 9.37 0 00-6.222-2.366c-5.193 0-9.418 4.225-9.418 9.418 0 .208.018.41.031.615-.017.073-.035.147-.03.226l1.29 18.06c.184 2.561 2.421 4.645 4.989 4.645h.783c2.553 0 4.992-1.951 5.552-4.442l1.763-7.836a3.9 3.9 0 002.889 1.29 3.93 3.93 0 003.845-3.14h1.728a3.93 3.93 0 003.845 3.14 3.9 3.9 0 002.926-1.336l1.774 7.882c.56 2.49 3 4.442 5.552 4.442h.783c2.567 0 4.805-2.083 4.988-4.645l1.29-18.06a.763.763 0 00-.07-.362zm-1.546-.479c0 4.328-3.52 7.849-7.848 7.849a7.8 7.8 0 01-4.794-1.648 3.935 3.935 0 00-.947-.866 7.81 7.81 0 01-2.108-5.335c0-4.327 3.52-7.848 7.849-7.848 4.328 0 7.848 3.52 7.848 7.848zm-32.964-7.848c4.328 0 7.849 3.52 7.849 7.848a7.81 7.81 0 01-2.108 5.335c-.364.233-.678.529-.947.866a7.8 7.8 0 01-4.794 1.648c-4.327 0-7.848-3.521-7.848-7.849 0-4.327 3.52-7.848 7.848-7.848zm1.666 26.607c-.392 1.744-2.234 3.217-4.021 3.217h-.783c-1.762 0-3.297-1.43-3.422-3.187l-.937-13.111c1.722 2.267 4.437 3.74 7.497 3.74a9.347 9.347 0 003.933-.871c0 .03-.009.057-.009.087 0 .02.006.04.007.06l-2.265 10.065zm6.183-7.77a2.35 2.35 0 01-2.336-2.175l.302-1.346c.024-.04.042-.085.068-.125.299-.24.583-.496.85-.77.334-.181.71-.294 1.116-.294a2.357 2.357 0 012.355 2.355 2.357 2.357 0 01-2.355 2.354zm5.573-3.14h-1.728a3.92 3.92 0 00-3.567-3.111 9.347 9.347 0 001.292-4.738 9.356 9.356 0 00-1.785-5.494h9.848a9.356 9.356 0 00-1.785 5.494c0 1.728.476 3.344 1.292 4.738a3.92 3.92 0 00-3.567 3.11zm3.845 3.14a2.357 2.357 0 01-2.354-2.355 2.357 2.357 0 012.354-2.355c.406 0 .782.113 1.116.294a9.5 9.5 0 00.85.77c.057.088.104.182.15.276l.235 1.047a2.355 2.355 0 01-2.35 2.322zm11.036 10.987h-.784c-1.787 0-3.628-1.473-4.021-3.217l-2.295-10.203a9.348 9.348 0 003.913.863c3.092 0 5.832-1.505 7.55-3.813l-.941 13.183c-.126 1.758-1.661 3.187-3.422 3.187z"/><path d="M88.71 86.79h2.354v2.355c0 .434.351.785.785.785h3.14a.785.785 0 00.784-.785v-2.354h2.355a.785.785 0 00.784-.785v-3.14a.785.785 0 00-.784-.784h-2.355v-2.355a.785.785 0 00-.785-.785h-3.14a.785.785 0 00-.784.785v2.355h-2.355a.785.785 0 00-.785.785v3.139c0 .434.352.785.785.785zm5.493 1.57h-1.57v-1.57h1.57v1.57zm-1.57-3.139v-1.57h1.57v1.57h-1.57zm4.71-1.57v1.57h-1.57v-1.57h1.57zm-4.71-3.139h1.57v1.57h-1.57v-1.57zm-3.139 3.14h1.57v1.57h-1.57v-1.57zM104.406 81.297h3.139v1.57h-3.139z"/></g></g><use fill="#000" filter="url(#e)" xlink:href="#f"/><use fill="#FFF" xlink:href="#f"/><rect stroke-opacity=".12" stroke="#CCC" x="196.5" y="55.5" width="130" height="117" rx="6"/><path d="M237.374 145.168c1.89 0 3.038-.98 3.752-2.1l-1.4-.714a2.742 2.742 0 01-2.352 1.358c-1.848 0-3.22-1.414-3.22-3.374 0-1.96 1.372-3.374 3.22-3.374 1.008 0 1.904.588 2.352 1.358l1.4-.714c-.7-1.12-1.862-2.1-3.752-2.1-2.758 0-4.9 1.96-4.9 4.83s2.142 4.83 4.9 4.83zM248 145h-1.47v-.728c-.504.574-1.288.896-2.184.896-1.106 0-2.352-.742-2.352-2.24 0-1.554 1.246-2.198 2.352-2.198.91 0 1.694.294 2.184.868v-1.008c0-.784-.644-1.26-1.582-1.26-.756 0-1.414.28-2.002.854l-.602-1.022c.784-.742 1.764-1.092 2.842-1.092 1.498 0 2.814.63 2.814 2.45V145zm-3.08-.84c.644 0 1.274-.238 1.61-.7v-1.022c-.336-.462-.966-.7-1.61-.7-.826 0-1.442.476-1.442 1.218 0 .728.616 1.204 1.442 1.204zm6.454.84v-4.606c.294-.476 1.12-.896 1.736-.896.182 0 .336.014.462.042v-1.456c-.882 0-1.694.504-2.198 1.148v-.994h-1.47V145h1.47zm10.22.168c2.52 0 3.612-1.33 3.612-2.884 0-3.486-5.432-2.408-5.432-4.144 0-.7.616-1.162 1.582-1.162.98 0 1.974.336 2.702 1.064l.938-1.218c-.868-.84-2.044-1.302-3.5-1.302-2.044 0-3.402 1.19-3.402 2.73 0 3.444 5.446 2.226 5.446 4.186 0 .616-.532 1.274-1.876 1.274a4.028 4.028 0 01-2.954-1.288l-.91 1.26c.826.882 2.072 1.484 3.794 1.484zm8.204 0c-2.03 0-3.542-1.414-3.542-3.556 0-1.96 1.428-3.542 3.43-3.542 2.03 0 3.332 1.554 3.332 3.682v.35h-5.222c.112 1.022.882 1.862 2.156 1.862.658 0 1.442-.266 1.918-.742l.672.966c-.672.644-1.666.98-2.744.98zm1.792-4.102c-.028-.798-.574-1.792-1.904-1.792-1.26 0-1.834.966-1.904 1.792h3.808zm8.484 3.934h-1.47v-.728c-.504.574-1.288.896-2.184.896-1.106 0-2.352-.742-2.352-2.24 0-1.554 1.246-2.198 2.352-2.198.91 0 1.694.294 2.184.868v-1.008c0-.784-.644-1.26-1.582-1.26-.756 0-1.414.28-2.002.854l-.602-1.022c.784-.742 1.764-1.092 2.842-1.092 1.498 0 2.814.63 2.814 2.45V145zm-3.08-.84c.644 0 1.274-.238 1.61-.7v-1.022c-.336-.462-.966-.7-1.61-.7-.826 0-1.442.476-1.442 1.218 0 .728.616 1.204 1.442 1.204zm7.014 1.008c.686 0 1.12-.182 1.386-.434l-.35-1.106c-.112.126-.378.238-.658.238-.42 0-.644-.336-.644-.798v-3.542h1.372v-1.288h-1.372v-1.848h-1.47v1.848h-1.12v1.288h1.12v3.906c0 1.12.602 1.736 1.736 1.736zm4.746 0c1.82 0 2.814-.91 2.814-2.1 0-2.688-4.088-1.792-4.088-2.996 0-.476.49-.826 1.26-.826.84 0 1.596.35 2.002.812l.616-1.036c-.616-.546-1.484-.952-2.632-.952-1.708 0-2.66.952-2.66 2.058 0 2.59 4.088 1.638 4.088 2.968 0 .532-.448.91-1.33.91-.882 0-1.82-.462-2.296-.952l-.672 1.064c.7.686 1.75 1.05 2.898 1.05z" fill="#2D303F"/><g transform="translate(245 72)" fill-rule="nonzero"><path d="M22 7H12a3 3 0 110-6h10a3 3 0 110 6z" fill="#D0DFEE"/><path d="M22.158 1H19c1.57 0 2.842 1.343 2.842 3S20.57 7 19 7h3.158C23.728 7 25 5.657 25 4s-1.273-3-2.842-3z" fill="#A8C5E2"/><g fill="#D0DFEE"><path d="M29.135 43.929H5.865c-2.646 0-4.791-2.185-4.791-4.88 0-2.694 2.145-4.879 4.79-4.879h23.271c2.646 0 4.791 2.185 4.791 4.88 0 2.694-2.145 4.879-4.79 4.879zM29.135 33.473H5.865v-18.88c0-3.046 2.425-5.515 5.416-5.515h12.438c2.991 0 5.416 2.47 5.416 5.515v18.88z"/></g><path d="M22.065 9H16c3.278 0 5.935 2.704 5.935 6.039V33H28V15.039C28 11.704 26.28 9 22.065 9z" fill="#A8C5E2"/><path d="M23.416 20H10.584C9.709 20 9 19.226 9 18.272v-4.544C9 12.774 9.71 12 10.584 12h12.832c.875 0 1.584.774 1.584 1.728v4.544c0 .954-.71 1.728-1.584 1.728z" fill="#F9EACD"/><circle fill="#FAB639" cx="28.5" cy="30.5" r="3.5"/><circle fill="#FAB639" cx="5.5" cy="30.5" r="3.5"/><path d="M28.333 34H21c2.577 0 4.667 2.239 4.667 5s-2.09 5-4.667 5h7.333C30.911 44 33 41.761 33 39s-2.09-5-4.667-5z" fill="#A8C5E2"/><g fill="#FFF"><path d="M5.077 30.015h1.38v1h-1.38zM28.543 30.015h1.38v1h-1.38z"/></g><path fill="#1D1D1B" d="M5.431 39.904h1.361v1.344H5.431zM8.154 39.904h1.361v1.344H8.154zM10.876 39.904h1.361v1.344h-1.361zM13.598 39.904h1.361v1.344h-1.361zM16.319 39.904h1.361v1.344h-1.361zM19.042 39.904h1.361v1.344h-1.361zM21.764 39.904h1.361v1.344h-1.361zM24.485 39.904h1.361v1.344h-1.361zM27.207 39.904h1.361v1.344h-1.361z"/><path d="M30.954 33.584a4.123 4.123 0 001.682-3.328c0-2.039-1.475-3.734-3.403-4.056V14.526a6.36 6.36 0 00-.018-.47l2.772-2.322v.634h1.33V3.424h-1.33V5.17l-5.25 4.33a6.152 6.152 0 00-3.706-1.243h-1.283v-.72h.356c2.055 0 3.727-1.69 3.727-3.768S24.159 0 22.104 0H11.896C9.841 0 8.17 1.69 8.17 3.768s1.672 3.768 3.727 3.768h.356v.72H10.97c-3.42 0-6.202 2.813-6.202 6.27V26.2c-1.928.322-3.403 2.017-3.403 4.056 0 1.367.664 2.58 1.682 3.328a5.5 5.5 0 00-3.043 4.928C.003 41.538 2.438 44 5.431 44h23.137c2.993 0 5.428-2.462 5.428-5.488a5.499 5.499 0 00-3.042-4.928zm.352-3.328c0 1.526-1.228 2.768-2.738 2.768s-2.737-1.242-2.737-2.768c0-1.526 1.228-2.768 2.737-2.768 1.51 0 2.738 1.242 2.738 2.768zm-21.821.328l11.908-9.976h2.122c1.277 0 2.316-1.05 2.316-2.341V16.89l2.073-1.737V26.2c-1.928.322-3.403 2.017-3.403 4.056 0 1.065.403 2.037 1.062 2.768H8.437a4.119 4.119 0 001.048-2.44zm13.513-11.32l1.503-1.26v.263c0 .55-.442.997-.986.997h-.517zm8.989-12.36v3.084L9.3 28.992a4.126 4.126 0 00-1.542-2.106L31.987 6.904zm-17.09 12.36h-4.412a.993.993 0 01-.986-.997v-4.23c0-.55.442-.997.986-.997h11.958l-7.546 6.224zm-3-13.072c-1.323 0-2.398-1.087-2.398-2.424 0-1.336 1.075-2.424 2.397-2.424h10.208c1.321 0 2.397 1.088 2.397 2.424 0 1.337-1.076 2.424-2.397 2.424H11.896zm8.521 1.344v.72h-6.836v-.72h6.836zM10.968 9.6h12.063c.94 0 1.853.275 2.634.783l-1.592 1.313H10.485c-1.277 0-2.316 1.05-2.316 2.341v4.23c0 1.29 1.04 2.341 2.316 2.341h2.782L6.41 26.265a4.004 4.004 0 00-.312-.065V14.526c0-2.716 2.185-4.926 4.872-4.926zM2.695 30.256c0-1.526 1.228-2.768 2.738-2.768s2.737 1.242 2.737 2.768c0 1.526-1.228 2.768-2.737 2.768-1.51 0-2.738-1.242-2.738-2.768zm25.874 12.4H5.432a4.07 4.07 0 01-3.075-1.408h1.714v-1.344h-2.5a4.164 4.164 0 01-.238-1.392c0-2.285 1.839-4.144 4.099-4.144h23.136c2.26 0 4.1 1.859 4.1 4.144 0 .488-.085.956-.24 1.392H29.93v1.344h1.713a4.071 4.071 0 01-3.075 1.408z" fill="#2C484F"/></g><g><use fill="#000" filter="url(#g)" xlink:href="#h"/><use fill="#FFF" xlink:href="#h"/><rect stroke-opacity=".12" stroke="#CCC" x="155.5" y="194.5" width="130" height="117" rx="6"/></g><path d="M198.733 284.168c1.89 0 3.038-.98 3.752-2.1l-1.4-.714a2.742 2.742 0 01-2.352 1.358c-1.848 0-3.22-1.414-3.22-3.374 0-1.96 1.372-3.374 3.22-3.374 1.008 0 1.904.588 2.352 1.358l1.4-.714c-.7-1.12-1.862-2.1-3.752-2.1-2.758 0-4.9 1.96-4.9 4.83s2.142 4.83 4.9 4.83zm10.626-.168h-1.47v-.728c-.504.574-1.288.896-2.184.896-1.106 0-2.352-.742-2.352-2.24 0-1.554 1.246-2.198 2.352-2.198.91 0 1.694.294 2.184.868v-1.008c0-.784-.644-1.26-1.582-1.26-.756 0-1.414.28-2.002.854l-.602-1.022c.784-.742 1.764-1.092 2.842-1.092 1.498 0 2.814.63 2.814 2.45V284zm-3.08-.84c.644 0 1.274-.238 1.61-.7v-1.022c-.336-.462-.966-.7-1.61-.7-.826 0-1.442.476-1.442 1.218 0 .728.616 1.204 1.442 1.204zm14.742.84v-4.886c0-1.372-.7-2.044-1.946-2.044-1.008 0-1.904.63-2.296 1.246-.224-.742-.84-1.246-1.848-1.246-1.022 0-1.918.672-2.198 1.092v-.924h-1.47V284h1.47v-4.718c.308-.448.91-.91 1.554-.91.798 0 1.12.49 1.12 1.218V284h1.47v-4.732c.294-.434.91-.896 1.568-.896.784 0 1.106.49 1.106 1.218V284h1.47zm5.026.168c-2.03 0-3.542-1.414-3.542-3.556 0-1.96 1.428-3.542 3.43-3.542 2.03 0 3.332 1.554 3.332 3.682v.35h-5.222c.112 1.022.882 1.862 2.156 1.862.658 0 1.442-.266 1.918-.742l.672.966c-.672.644-1.666.98-2.744.98zm1.792-4.102c-.028-.798-.574-1.792-1.904-1.792-1.26 0-1.834.966-1.904 1.792h3.808zm4.354 3.934v-4.606c.294-.476 1.12-.896 1.736-.896.182 0 .336.014.462.042v-1.456c-.882 0-1.694.504-2.198 1.148v-.994h-1.47V284h1.47zm8.988 0h-1.47v-.728c-.504.574-1.288.896-2.184.896-1.106 0-2.352-.742-2.352-2.24 0-1.554 1.246-2.198 2.352-2.198.91 0 1.694.294 2.184.868v-1.008c0-.784-.644-1.26-1.582-1.26-.756 0-1.414.28-2.002.854l-.602-1.022c.784-.742 1.764-1.092 2.842-1.092 1.498 0 2.814.63 2.814 2.45V284zm-3.08-.84c.644 0 1.274-.238 1.61-.7v-1.022c-.336-.462-.966-.7-1.61-.7-.826 0-1.442.476-1.442 1.218 0 .728.616 1.204 1.442 1.204zm7.294 1.008c1.82 0 2.814-.91 2.814-2.1 0-2.688-4.088-1.792-4.088-2.996 0-.476.49-.826 1.26-.826.84 0 1.596.35 2.002.812l.616-1.036c-.616-.546-1.484-.952-2.632-.952-1.708 0-2.66.952-2.66 2.058 0 2.59 4.088 1.638 4.088 2.968 0 .532-.448.91-1.33.91-.882 0-1.82-.462-2.296-.952l-.672 1.064c.7.686 1.75 1.05 2.898 1.05z" fill="#2D303F"/><g fill-rule="nonzero"><path d="M221.388 217.307c-.318-.711-1.237-1.294-2.043-1.294h-7.39c-.806 0-1.737.578-2.069 1.284l-1.858 3.948 7.56 1.743 7.558-1.743-1.758-3.938z" fill="#D0DFEE"/><path d="M233.179 218.629h-1.833c-1.518 0-2.748 1.171-2.748 2.616l3.664 1.743 3.665-1.743c0-1.445-1.23-2.616-2.748-2.616z" fill="#3B8BC0"/><path d="M205.602 221c-1.981 0-3.602 1.658-3.602 3.684v20.632c0 2.026 1.62 3.684 3.602 3.684h30.796c1.981 0 3.602-1.658 3.602-3.684v-20.632c0-2.026-1.62-3.684-3.602-3.684h-30.796z" fill="#D0DFEE"/><path fill="#FFD86C" d="M230 224h7v4h-7z"/><g><path d="M236.703 220.45a3.337 3.337 0 00-3.213-2.412h-2.257a3.34 3.34 0 00-3.214 2.409h-3.438l-1.5-3.526c-.459-1.08-1.683-1.894-2.847-1.894h-7.294c-1.157 0-2.39.803-2.866 1.867l-1.593 3.553h-3.058c-2.439 0-4.423 2.003-4.423 4.465v20.596c0 2.462 1.984 4.465 4.423 4.465h31.155c2.438 0 4.422-2.003 4.422-4.465v-20.596c0-2.42-1.916-4.395-4.297-4.462zm-5.47-.585h2.257c.479 0 .911.228 1.196.582h-4.65a1.54 1.54 0 011.197-.582zm7.957 25.643c0 1.455-1.171 2.638-2.612 2.638h-31.155c-1.44 0-2.613-1.183-2.613-2.638v-20.596c0-1.455 1.172-2.639 2.613-2.639h5.45a.91.91 0 00.905-.913.91.91 0 00-.905-.913h-.405l1.255-2.801c.183-.407.774-.793 1.217-.793h7.294c.436 0 1.012.383 1.184.788l1.194 2.806h-8.569a.91.91 0 00-.905.913.91.91 0 00.905.913h22.535c1.44 0 2.612 1.184 2.612 2.639v20.596z" fill="#314E55"/><path d="M216.59 224.813c-5.533 0-10.034 4.543-10.034 10.127 0 5.58 4.501 10.12 10.034 10.12 5.53 0 10.03-4.54 10.03-10.12 0-5.584-4.5-10.127-10.03-10.127zm0 18.421c-4.535 0-8.224-3.72-8.224-8.294 0-4.577 3.689-8.3 8.224-8.3 4.533 0 8.221 3.723 8.221 8.3 0 4.573-3.688 8.294-8.221 8.294z" fill="#314E55"/><path d="M216.588 231.976c-1.618 0-2.935 1.329-2.935 2.962 0 1.633 1.317 2.961 2.935 2.961s2.935-1.328 2.935-2.96c0-1.634-1.317-2.963-2.935-2.963zm0 5.193c-1.22 0-2.212-1-2.212-2.23 0-1.232.993-2.233 2.212-2.233 1.22 0 2.211 1.001 2.211 2.232 0 1.23-.991 2.231-2.21 2.231z" stroke="#FFF" stroke-width="5" fill="#FFF"/><path d="M216.59 228.525c-3.506 0-6.357 2.878-6.357 6.415 0 3.534 2.851 6.41 6.356 6.41 3.503 0 6.353-2.876 6.353-6.41 0-3.537-2.85-6.415-6.353-6.415zm0 11.245c-2.642 0-4.79-2.167-4.79-4.83 0-2.666 2.148-4.835 4.79-4.835 2.639 0 4.786 2.169 4.786 4.835 0 2.663-2.147 4.83-4.787 4.83z" stroke="#FAB639" fill="#FAB639"/><path d="M235.938 224.362h-7.154a.91.91 0 00-.905.913v4.466a.91.91 0 00.905.913h7.154a.91.91 0 00.905-.913v-4.466a.91.91 0 00-.905-.913zm-.905 4.466h-5.344v-2.64h5.344v2.64z" fill="#314E55"/></g></g></g></svg>