<svg xmlns="http://www.w3.org/2000/svg" width="40" height="40"><g fill="none"><path fill="#FFCA5D" d="M33 26.353a.913.913 0 00-.912-.912h-.52c-2.39 0-4.735-.377-6.97-1.121a.889.889 0 00-1.047.377l-.867 1.376a2.757 2.757 0 01-3.603.969 26.684 26.684 0 01-11.12-11.12 2.758 2.758 0 01.967-3.606l1.376-.866a.896.896 0 00.378-1.045A22.006 22.006 0 019.558 3.43v-.52A.913.913 0 008.647 2H4.735A2.739 2.739 0 002 4.735c0 7.552 2.94 14.651 8.276 19.989C15.613 30.06 22.712 33 30.265 33A2.728 2.728 0 0033 30.265v-3.912z"/><path fill="#F5B445" d="M32.073 25.614h-.528c-.133 0-.265-.013-.398-.015v2.946a2.62 2.62 0 01-.935 2.002 2.874 2.874 0 01-1.846.671C21.13 31.218 14.303 28.663 9 24c.294.31.594.615.904.912C15.33 30.128 22.544 33 30.22 33a2.88 2.88 0 001.846-.67A2.62 2.62 0 0033 30.326v-3.822c0-.491-.415-.89-.927-.89z"/><path fill="#014463" d="M34.545 28.205V26.1a2.73 2.73 0 00-2.727-2.727H31.3c-2.187 0-4.333-.346-6.376-1.026a2.709 2.709 0 00-3.158 1.133l-.864 1.373a.922.922 0 01-1.205.325A24.78 24.78 0 019.367 14.85a.923.923 0 01.326-1.206l1.373-.864a2.709 2.709 0 001.132-3.157 20.154 20.154 0 01-1.025-6.376v-.519A2.73 2.73 0 008.445 0h-3.9A4.55 4.55 0 000 4.545c0 8.016 3.12 15.55 8.785 21.216 5.664 5.665 13.199 8.784 21.215 8.784 1.102 0 2.17-.401 3.01-1.135a4.54 4.54 0 001.534-3.365c2.04.23 3.638 1.945 3.638 4.046a4.096 4.096 0 01-4.091 4.09H14.545a4.096 4.096 0 01-4.09-4.09 5.917 5.917 0 00-5.91-5.91.909.909 0 100 1.819 4.096 4.096 0 014.091 4.09c0 3.26 2.651 5.91 5.91 5.91H34.09c3.259 0 5.91-2.65 5.91-5.91 0-3.104-2.408-5.652-5.455-5.885zm-1.818-.023H30.91c-2.216 0-4.412-.295-6.524-.877a.91.91 0 10-.482 1.752c2.27.626 4.627.943 7.006.943h1.818A2.72 2.72 0 0130 32.727c-7.53 0-14.608-2.93-19.93-8.252-5.322-5.32-8.252-12.4-8.252-19.93a2.73 2.73 0 012.727-2.727h.91v1.818c0 2.378.316 4.735.94 7.006a.91.91 0 001.754-.482 24.586 24.586 0 01-.876-6.524V1.818h1.172a.91.91 0 01.91.91v.517c0 2.383.376 4.721 1.119 6.951a.893.893 0 01-.377 1.042l-1.372.864a2.75 2.75 0 00-.965 3.595 26.6 26.6 0 0011.088 11.088 2.749 2.749 0 003.593-.966l.864-1.373a.885.885 0 011.043-.375 21.969 21.969 0 006.951 1.118h.52c.5 0 .908.407.908.91v2.083z"/><path fill="#ECEFF9" d="M27.917 13.26h9.194c.49 0 .889-.42.889-.938V2.938C38 2.42 37.6 2 37.111 2H22.89c-.49 0-.889.42-.889.938v13.688c0 .316.416.5.63.274l2.145-2.265c.84-.885 1.956-1.374 3.142-1.374z"/><path fill="#014463" d="M22.195 18C20.985 18 20 17.025 20 15.827V2.7C20 1.211 21.224 0 22.727 0h14.546C38.776 0 40 1.211 40 2.7v9c0 1.489-1.224 2.7-2.727 2.7H27.87c-.718 0-1.42.288-1.928.791l-2.196 2.173a2.223 2.223 0 01-1.551.636zm.532-16.2c-.5 0-.909.403-.909.9v13.127c0 .304.426.48.644.263l2.194-2.172A4.54 4.54 0 0127.87 12.6h9.403c.5 0 .909-.403.909-.9v-9c0-.497-.408-.9-.91-.9H22.728z"/><path fill="#C4D7E5" d="M37.111 2v9.384c0 .518-.398.938-.889.938h-9.194c-1.187 0-2.304.49-3.143 1.375L22 15.687v.939c0 .317.416.499.628.274l2.146-2.265c.84-.886 1.956-1.374 3.143-1.374h9.194c.49 0 .889-.42.889-.939V2.938C38 2.42 37.602 2 37.111 2z"/><g fill="#014463" transform="translate(25 6)"><circle cx="4.5" cy="1.008" r="1"/><circle cx="8.05" cy="1.008" r="1"/><circle cx=".95" cy="1.008" r="1"/></g></g></svg>